<mxfile host="app.diagrams.net" agent="Mozilla/5.0 (Windows NT 10.0; Win64; x64) AppleWebKit/537.36 (KHTML, like Gecko) Chrome/139.0.0.0 Safari/537.36" version="28.1.0">
  <diagram name="Σελίδα-1" id="Oaszmg59oNhf1NEgjNxu">
    <mxGraphModel dx="3329" dy="2515" grid="1" gridSize="10" guides="1" tooltips="1" connect="1" arrows="1" fold="1" page="1" pageScale="1" pageWidth="827" pageHeight="1169" math="0" shadow="0">
      <root>
        <mxCell id="0" />
        <mxCell id="1" parent="0" />
        <mxCell id="_QdN2ZTpumICd109jLUp-1" value="customers" style="shape=table;startSize=30;container=1;collapsible=0;childLayout=tableLayout;fontSize=16;gradientColor=none;swimlaneLine=1;" vertex="1" parent="1">
          <mxGeometry x="20" y="150" width="230" height="421.0000000000001" as="geometry" />
        </mxCell>
        <mxCell id="_QdN2ZTpumICd109jLUp-2" value="" style="shape=tableRow;horizontal=0;startSize=0;swimlaneHead=0;swimlaneBody=0;strokeColor=inherit;top=0;left=0;bottom=0;right=0;collapsible=0;dropTarget=0;fillColor=none;points=[[0,0.5],[1,0.5]];portConstraint=eastwest;fontSize=16;" vertex="1" parent="_QdN2ZTpumICd109jLUp-1">
          <mxGeometry y="30" width="230" height="40" as="geometry" />
        </mxCell>
        <mxCell id="_QdN2ZTpumICd109jLUp-3" value="UUID" style="shape=partialRectangle;html=1;whiteSpace=wrap;connectable=0;strokeColor=inherit;overflow=hidden;fillColor=none;top=0;left=0;bottom=0;right=0;pointerEvents=1;fontSize=12;" vertex="1" parent="_QdN2ZTpumICd109jLUp-2">
          <mxGeometry width="80" height="40" as="geometry">
            <mxRectangle width="80" height="40" as="alternateBounds" />
          </mxGeometry>
        </mxCell>
        <mxCell id="_QdN2ZTpumICd109jLUp-4" value="ID" style="shape=partialRectangle;html=1;whiteSpace=wrap;connectable=0;strokeColor=inherit;overflow=hidden;fillColor=none;top=0;left=0;bottom=0;right=0;pointerEvents=1;fontSize=12;" vertex="1" parent="_QdN2ZTpumICd109jLUp-2">
          <mxGeometry x="80" width="80" height="40" as="geometry">
            <mxRectangle width="80" height="40" as="alternateBounds" />
          </mxGeometry>
        </mxCell>
        <mxCell id="_QdN2ZTpumICd109jLUp-5" value="PK(Not Null)&lt;br&gt;Uniq" style="shape=partialRectangle;html=1;whiteSpace=wrap;connectable=0;strokeColor=inherit;overflow=hidden;fillColor=none;top=0;left=0;bottom=0;right=0;pointerEvents=1;fontSize=12;" vertex="1" parent="_QdN2ZTpumICd109jLUp-2">
          <mxGeometry x="160" width="70" height="40" as="geometry">
            <mxRectangle width="70" height="40" as="alternateBounds" />
          </mxGeometry>
        </mxCell>
        <mxCell id="_QdN2ZTpumICd109jLUp-6" value="" style="shape=tableRow;horizontal=0;startSize=0;swimlaneHead=0;swimlaneBody=0;strokeColor=inherit;top=0;left=0;bottom=0;right=0;collapsible=0;dropTarget=0;fillColor=none;points=[[0,0.5],[1,0.5]];portConstraint=eastwest;fontSize=16;" vertex="1" parent="_QdN2ZTpumICd109jLUp-1">
          <mxGeometry y="70" width="230" height="40" as="geometry" />
        </mxCell>
        <mxCell id="_QdN2ZTpumICd109jLUp-7" value="String" style="shape=partialRectangle;html=1;whiteSpace=wrap;connectable=0;strokeColor=inherit;overflow=hidden;fillColor=none;top=0;left=0;bottom=0;right=0;pointerEvents=1;fontSize=12;" vertex="1" parent="_QdN2ZTpumICd109jLUp-6">
          <mxGeometry width="80" height="40" as="geometry">
            <mxRectangle width="80" height="40" as="alternateBounds" />
          </mxGeometry>
        </mxCell>
        <mxCell id="_QdN2ZTpumICd109jLUp-8" value="&lt;font&gt;Phone Number&lt;/font&gt;" style="shape=partialRectangle;html=1;whiteSpace=wrap;connectable=0;strokeColor=inherit;overflow=hidden;fillColor=none;top=0;left=0;bottom=0;right=0;pointerEvents=1;fontSize=12;" vertex="1" parent="_QdN2ZTpumICd109jLUp-6">
          <mxGeometry x="80" width="80" height="40" as="geometry">
            <mxRectangle width="80" height="40" as="alternateBounds" />
          </mxGeometry>
        </mxCell>
        <mxCell id="_QdN2ZTpumICd109jLUp-9" value="Not Null&lt;br&gt;Uniq" style="shape=partialRectangle;html=1;whiteSpace=wrap;connectable=0;strokeColor=inherit;overflow=hidden;fillColor=none;top=0;left=0;bottom=0;right=0;pointerEvents=1;fontSize=12;" vertex="1" parent="_QdN2ZTpumICd109jLUp-6">
          <mxGeometry x="160" width="70" height="40" as="geometry">
            <mxRectangle width="70" height="40" as="alternateBounds" />
          </mxGeometry>
        </mxCell>
        <mxCell id="_QdN2ZTpumICd109jLUp-10" value="" style="shape=tableRow;horizontal=0;startSize=0;swimlaneHead=0;swimlaneBody=0;strokeColor=inherit;top=0;left=0;bottom=0;right=0;collapsible=0;dropTarget=0;fillColor=none;points=[[0,0.5],[1,0.5]];portConstraint=eastwest;fontSize=16;" vertex="1" parent="_QdN2ZTpumICd109jLUp-1">
          <mxGeometry y="110" width="230" height="39" as="geometry" />
        </mxCell>
        <mxCell id="_QdN2ZTpumICd109jLUp-11" value="String" style="shape=partialRectangle;html=1;whiteSpace=wrap;connectable=0;strokeColor=inherit;overflow=hidden;fillColor=none;top=0;left=0;bottom=0;right=0;pointerEvents=1;fontSize=12;" vertex="1" parent="_QdN2ZTpumICd109jLUp-10">
          <mxGeometry width="80" height="39" as="geometry">
            <mxRectangle width="80" height="39" as="alternateBounds" />
          </mxGeometry>
        </mxCell>
        <mxCell id="_QdN2ZTpumICd109jLUp-12" value="E-Mail" style="shape=partialRectangle;html=1;whiteSpace=wrap;connectable=0;strokeColor=inherit;overflow=hidden;fillColor=none;top=0;left=0;bottom=0;right=0;pointerEvents=1;fontSize=12;" vertex="1" parent="_QdN2ZTpumICd109jLUp-10">
          <mxGeometry x="80" width="80" height="39" as="geometry">
            <mxRectangle width="80" height="39" as="alternateBounds" />
          </mxGeometry>
        </mxCell>
        <mxCell id="_QdN2ZTpumICd109jLUp-13" value="Not Null&lt;br&gt;Uniq" style="shape=partialRectangle;html=1;whiteSpace=wrap;connectable=0;strokeColor=inherit;overflow=hidden;fillColor=none;top=0;left=0;bottom=0;right=0;pointerEvents=1;fontSize=12;" vertex="1" parent="_QdN2ZTpumICd109jLUp-10">
          <mxGeometry x="160" width="70" height="39" as="geometry">
            <mxRectangle width="70" height="39" as="alternateBounds" />
          </mxGeometry>
        </mxCell>
        <mxCell id="_QdN2ZTpumICd109jLUp-14" style="shape=tableRow;horizontal=0;startSize=0;swimlaneHead=0;swimlaneBody=0;strokeColor=inherit;top=0;left=0;bottom=0;right=0;collapsible=0;dropTarget=0;fillColor=none;points=[[0,0.5],[1,0.5]];portConstraint=eastwest;fontSize=16;" vertex="1" parent="_QdN2ZTpumICd109jLUp-1">
          <mxGeometry y="149" width="230" height="39" as="geometry" />
        </mxCell>
        <mxCell id="_QdN2ZTpumICd109jLUp-15" value="String" style="shape=partialRectangle;html=1;whiteSpace=wrap;connectable=0;strokeColor=inherit;overflow=hidden;fillColor=none;top=0;left=0;bottom=0;right=0;pointerEvents=1;fontSize=12;" vertex="1" parent="_QdN2ZTpumICd109jLUp-14">
          <mxGeometry width="80" height="39" as="geometry">
            <mxRectangle width="80" height="39" as="alternateBounds" />
          </mxGeometry>
        </mxCell>
        <mxCell id="_QdN2ZTpumICd109jLUp-16" value="Username" style="shape=partialRectangle;html=1;whiteSpace=wrap;connectable=0;strokeColor=inherit;overflow=hidden;fillColor=none;top=0;left=0;bottom=0;right=0;pointerEvents=1;fontSize=12;" vertex="1" parent="_QdN2ZTpumICd109jLUp-14">
          <mxGeometry x="80" width="80" height="39" as="geometry">
            <mxRectangle width="80" height="39" as="alternateBounds" />
          </mxGeometry>
        </mxCell>
        <mxCell id="_QdN2ZTpumICd109jLUp-17" value="Not Null&lt;br&gt;Uniq" style="shape=partialRectangle;html=1;whiteSpace=wrap;connectable=0;strokeColor=inherit;overflow=hidden;fillColor=none;top=0;left=0;bottom=0;right=0;pointerEvents=1;fontSize=12;" vertex="1" parent="_QdN2ZTpumICd109jLUp-14">
          <mxGeometry x="160" width="70" height="39" as="geometry">
            <mxRectangle width="70" height="39" as="alternateBounds" />
          </mxGeometry>
        </mxCell>
        <mxCell id="_QdN2ZTpumICd109jLUp-18" value="" style="shape=tableRow;horizontal=0;startSize=0;swimlaneHead=0;swimlaneBody=0;top=0;left=0;bottom=0;right=0;dropTarget=0;collapsible=0;recursiveResize=0;expand=0;fontStyle=0;fillColor=none;" vertex="1" parent="_QdN2ZTpumICd109jLUp-1">
          <mxGeometry y="188" width="230" height="47" as="geometry" />
        </mxCell>
        <mxCell id="_QdN2ZTpumICd109jLUp-19" value="Hashed" style="connectable=0;recursiveResize=0;strokeColor=none;fillColor=none;align=center;whiteSpace=wrap;html=1;" vertex="1" parent="_QdN2ZTpumICd109jLUp-18">
          <mxGeometry width="80" height="47" as="geometry">
            <mxRectangle width="80" height="47" as="alternateBounds" />
          </mxGeometry>
        </mxCell>
        <mxCell id="_QdN2ZTpumICd109jLUp-20" value="Password" style="connectable=0;recursiveResize=0;strokeColor=none;fillColor=none;align=center;whiteSpace=wrap;html=1;" vertex="1" parent="_QdN2ZTpumICd109jLUp-18">
          <mxGeometry x="80" width="80" height="47" as="geometry">
            <mxRectangle width="80" height="47" as="alternateBounds" />
          </mxGeometry>
        </mxCell>
        <mxCell id="_QdN2ZTpumICd109jLUp-21" value="Not Null&lt;br&gt;Uniq" style="connectable=0;recursiveResize=0;strokeColor=none;fillColor=none;align=center;whiteSpace=wrap;html=1;" vertex="1" parent="_QdN2ZTpumICd109jLUp-18">
          <mxGeometry x="160" width="70" height="47" as="geometry">
            <mxRectangle width="70" height="47" as="alternateBounds" />
          </mxGeometry>
        </mxCell>
        <mxCell id="_QdN2ZTpumICd109jLUp-22" style="shape=tableRow;horizontal=0;startSize=0;swimlaneHead=0;swimlaneBody=0;top=0;left=0;bottom=0;right=0;dropTarget=0;collapsible=0;recursiveResize=0;expand=0;fontStyle=0;fillColor=none;" vertex="1" parent="_QdN2ZTpumICd109jLUp-1">
          <mxGeometry y="235" width="230" height="46" as="geometry" />
        </mxCell>
        <mxCell id="_QdN2ZTpumICd109jLUp-23" value="String" style="connectable=0;recursiveResize=0;strokeColor=none;fillColor=none;align=center;whiteSpace=wrap;html=1;" vertex="1" parent="_QdN2ZTpumICd109jLUp-22">
          <mxGeometry width="80" height="46" as="geometry">
            <mxRectangle width="80" height="46" as="alternateBounds" />
          </mxGeometry>
        </mxCell>
        <mxCell id="_QdN2ZTpumICd109jLUp-24" value="Name" style="connectable=0;recursiveResize=0;strokeColor=none;fillColor=none;align=center;whiteSpace=wrap;html=1;" vertex="1" parent="_QdN2ZTpumICd109jLUp-22">
          <mxGeometry x="80" width="80" height="46" as="geometry">
            <mxRectangle width="80" height="46" as="alternateBounds" />
          </mxGeometry>
        </mxCell>
        <mxCell id="_QdN2ZTpumICd109jLUp-25" value="" style="connectable=0;recursiveResize=0;strokeColor=none;fillColor=none;align=center;whiteSpace=wrap;html=1;" vertex="1" parent="_QdN2ZTpumICd109jLUp-22">
          <mxGeometry x="160" width="70" height="46" as="geometry">
            <mxRectangle width="70" height="46" as="alternateBounds" />
          </mxGeometry>
        </mxCell>
        <mxCell id="_QdN2ZTpumICd109jLUp-26" style="shape=tableRow;horizontal=0;startSize=0;swimlaneHead=0;swimlaneBody=0;top=0;left=0;bottom=0;right=0;dropTarget=0;collapsible=0;recursiveResize=0;expand=0;fontStyle=0;fillColor=none;" vertex="1" parent="_QdN2ZTpumICd109jLUp-1">
          <mxGeometry y="281" width="230" height="46" as="geometry" />
        </mxCell>
        <mxCell id="_QdN2ZTpumICd109jLUp-27" value="String" style="connectable=0;recursiveResize=0;strokeColor=none;fillColor=none;align=center;whiteSpace=wrap;html=1;" vertex="1" parent="_QdN2ZTpumICd109jLUp-26">
          <mxGeometry width="80" height="46" as="geometry">
            <mxRectangle width="80" height="46" as="alternateBounds" />
          </mxGeometry>
        </mxCell>
        <mxCell id="_QdN2ZTpumICd109jLUp-28" value="Surname" style="connectable=0;recursiveResize=0;strokeColor=none;fillColor=none;align=center;whiteSpace=wrap;html=1;" vertex="1" parent="_QdN2ZTpumICd109jLUp-26">
          <mxGeometry x="80" width="80" height="46" as="geometry">
            <mxRectangle width="80" height="46" as="alternateBounds" />
          </mxGeometry>
        </mxCell>
        <mxCell id="_QdN2ZTpumICd109jLUp-29" value="" style="connectable=0;recursiveResize=0;strokeColor=none;fillColor=none;align=center;whiteSpace=wrap;html=1;" vertex="1" parent="_QdN2ZTpumICd109jLUp-26">
          <mxGeometry x="160" width="70" height="46" as="geometry">
            <mxRectangle width="70" height="46" as="alternateBounds" />
          </mxGeometry>
        </mxCell>
        <mxCell id="_QdN2ZTpumICd109jLUp-30" style="shape=tableRow;horizontal=0;startSize=0;swimlaneHead=0;swimlaneBody=0;top=0;left=0;bottom=0;right=0;dropTarget=0;collapsible=0;recursiveResize=0;expand=0;fontStyle=0;fillColor=none;" vertex="1" parent="_QdN2ZTpumICd109jLUp-1">
          <mxGeometry y="327" width="230" height="47" as="geometry" />
        </mxCell>
        <mxCell id="_QdN2ZTpumICd109jLUp-31" value="TimeStamp" style="connectable=0;recursiveResize=0;strokeColor=none;fillColor=none;align=center;whiteSpace=wrap;html=1;" vertex="1" parent="_QdN2ZTpumICd109jLUp-30">
          <mxGeometry width="80" height="47" as="geometry">
            <mxRectangle width="80" height="47" as="alternateBounds" />
          </mxGeometry>
        </mxCell>
        <mxCell id="_QdN2ZTpumICd109jLUp-32" value="CreatedAt" style="connectable=0;recursiveResize=0;strokeColor=none;fillColor=none;align=center;whiteSpace=wrap;html=1;" vertex="1" parent="_QdN2ZTpumICd109jLUp-30">
          <mxGeometry x="80" width="80" height="47" as="geometry">
            <mxRectangle width="80" height="47" as="alternateBounds" />
          </mxGeometry>
        </mxCell>
        <mxCell id="_QdN2ZTpumICd109jLUp-33" value="Not Null" style="connectable=0;recursiveResize=0;strokeColor=none;fillColor=none;align=center;whiteSpace=wrap;html=1;" vertex="1" parent="_QdN2ZTpumICd109jLUp-30">
          <mxGeometry x="160" width="70" height="47" as="geometry">
            <mxRectangle width="70" height="47" as="alternateBounds" />
          </mxGeometry>
        </mxCell>
        <mxCell id="_QdN2ZTpumICd109jLUp-34" value="" style="shape=tableRow;horizontal=0;startSize=0;swimlaneHead=0;swimlaneBody=0;top=0;left=0;bottom=0;right=0;dropTarget=0;collapsible=0;recursiveResize=0;expand=0;fontStyle=0;fillColor=none;" vertex="1" parent="_QdN2ZTpumICd109jLUp-1">
          <mxGeometry y="374" width="230" height="47" as="geometry" />
        </mxCell>
        <mxCell id="_QdN2ZTpumICd109jLUp-35" value="&#xa;&lt;span style=&quot;color: rgb(18, 18, 18); font-family: Helvetica; font-size: 12px; font-style: normal; font-variant-ligatures: normal; font-variant-caps: normal; font-weight: 400; letter-spacing: normal; orphans: 2; text-align: center; text-indent: 0px; text-transform: none; widows: 2; word-spacing: 0px; -webkit-text-stroke-width: 0px; white-space: normal; background-color: rgb(211, 213, 214); text-decoration-thickness: initial; text-decoration-style: initial; text-decoration-color: initial; display: inline !important; float: none;&quot;&gt;Boolean&lt;/span&gt;&#xa;&#xa;" style="connectable=0;recursiveResize=0;strokeColor=none;fillColor=none;align=center;whiteSpace=wrap;html=1;" vertex="1" parent="_QdN2ZTpumICd109jLUp-34">
          <mxGeometry width="80" height="47" as="geometry">
            <mxRectangle width="80" height="47" as="alternateBounds" />
          </mxGeometry>
        </mxCell>
        <mxCell id="_QdN2ZTpumICd109jLUp-36" value="&lt;br&gt;&lt;font color=&quot;#121212&quot;&gt;&lt;span style=&quot;background-color: rgb(211, 213, 214);&quot;&gt;is_subscribed&lt;/span&gt;&lt;/font&gt;&lt;div&gt;&lt;br/&gt;&lt;/div&gt;" style="connectable=0;recursiveResize=0;strokeColor=none;fillColor=none;align=center;whiteSpace=wrap;html=1;" vertex="1" parent="_QdN2ZTpumICd109jLUp-34">
          <mxGeometry x="80" width="80" height="47" as="geometry">
            <mxRectangle width="80" height="47" as="alternateBounds" />
          </mxGeometry>
        </mxCell>
        <mxCell id="_QdN2ZTpumICd109jLUp-37" value="&lt;span style=&quot;color: rgb(255, 255, 255); background-color: rgb(27, 29, 30); float: none; display: inline !important;&quot;&gt;default = false&lt;/span&gt;" style="connectable=0;recursiveResize=0;strokeColor=none;fillColor=none;align=center;whiteSpace=wrap;html=1;" vertex="1" parent="_QdN2ZTpumICd109jLUp-34">
          <mxGeometry x="160" width="70" height="47" as="geometry">
            <mxRectangle width="70" height="47" as="alternateBounds" />
          </mxGeometry>
        </mxCell>
        <mxCell id="_QdN2ZTpumICd109jLUp-38" style="edgeStyle=orthogonalEdgeStyle;rounded=0;orthogonalLoop=1;jettySize=auto;html=1;exitX=0.5;exitY=0;exitDx=0;exitDy=0;" edge="1" parent="1" source="_QdN2ZTpumICd109jLUp-39" target="_QdN2ZTpumICd109jLUp-64">
          <mxGeometry relative="1" as="geometry" />
        </mxCell>
        <mxCell id="_QdN2ZTpumICd109jLUp-39" value="customer_address" style="shape=table;startSize=30;container=1;collapsible=0;childLayout=tableLayout;strokeColor=default;fontSize=16;" vertex="1" parent="1">
          <mxGeometry x="329.5" y="120" width="181" height="481" as="geometry" />
        </mxCell>
        <mxCell id="_QdN2ZTpumICd109jLUp-40" style="shape=tableRow;horizontal=0;startSize=0;swimlaneHead=0;swimlaneBody=0;strokeColor=inherit;top=0;left=0;bottom=0;right=0;collapsible=0;dropTarget=0;fillColor=none;points=[[0,0.5],[1,0.5]];portConstraint=eastwest;fontSize=16;" vertex="1" parent="_QdN2ZTpumICd109jLUp-39">
          <mxGeometry y="30" width="181" height="80" as="geometry" />
        </mxCell>
        <mxCell id="_QdN2ZTpumICd109jLUp-41" value="&lt;font style=&quot;font-size: 11px;&quot;&gt;big int&lt;/font&gt;" style="shape=partialRectangle;html=1;whiteSpace=wrap;connectable=0;strokeColor=inherit;overflow=hidden;fillColor=none;top=0;left=0;bottom=0;right=0;pointerEvents=1;fontSize=12;" vertex="1" parent="_QdN2ZTpumICd109jLUp-40">
          <mxGeometry width="60" height="80" as="geometry">
            <mxRectangle width="60" height="80" as="alternateBounds" />
          </mxGeometry>
        </mxCell>
        <mxCell id="_QdN2ZTpumICd109jLUp-42" value="addr_id" style="shape=partialRectangle;html=1;whiteSpace=wrap;connectable=0;strokeColor=inherit;overflow=hidden;fillColor=none;top=0;left=0;bottom=0;right=0;pointerEvents=1;fontSize=12;" vertex="1" parent="_QdN2ZTpumICd109jLUp-40">
          <mxGeometry x="60" width="70" height="80" as="geometry">
            <mxRectangle width="70" height="80" as="alternateBounds" />
          </mxGeometry>
        </mxCell>
        <mxCell id="_QdN2ZTpumICd109jLUp-43" value="PK" style="shape=partialRectangle;html=1;whiteSpace=wrap;connectable=0;strokeColor=inherit;overflow=hidden;fillColor=none;top=0;left=0;bottom=0;right=0;pointerEvents=1;fontSize=12;" vertex="1" parent="_QdN2ZTpumICd109jLUp-40">
          <mxGeometry x="130" width="51" height="80" as="geometry">
            <mxRectangle width="51" height="80" as="alternateBounds" />
          </mxGeometry>
        </mxCell>
        <mxCell id="_QdN2ZTpumICd109jLUp-44" value="" style="shape=tableRow;horizontal=0;startSize=0;swimlaneHead=0;swimlaneBody=0;strokeColor=inherit;top=0;left=0;bottom=0;right=0;collapsible=0;dropTarget=0;fillColor=none;points=[[0,0.5],[1,0.5]];portConstraint=eastwest;fontSize=16;" vertex="1" parent="_QdN2ZTpumICd109jLUp-39">
          <mxGeometry y="110" width="181" height="75" as="geometry" />
        </mxCell>
        <mxCell id="_QdN2ZTpumICd109jLUp-45" value="&lt;font style=&quot;font-size: 11px;&quot;&gt;big int&lt;/font&gt;" style="shape=partialRectangle;html=1;whiteSpace=wrap;connectable=0;strokeColor=inherit;overflow=hidden;fillColor=none;top=0;left=0;bottom=0;right=0;pointerEvents=1;fontSize=12;" vertex="1" parent="_QdN2ZTpumICd109jLUp-44">
          <mxGeometry width="60" height="75" as="geometry">
            <mxRectangle width="60" height="75" as="alternateBounds" />
          </mxGeometry>
        </mxCell>
        <mxCell id="_QdN2ZTpumICd109jLUp-46" value="&lt;font&gt;customer_id&lt;/font&gt;" style="shape=partialRectangle;html=1;whiteSpace=wrap;connectable=0;strokeColor=inherit;overflow=hidden;fillColor=none;top=0;left=0;bottom=0;right=0;pointerEvents=1;fontSize=12;" vertex="1" parent="_QdN2ZTpumICd109jLUp-44">
          <mxGeometry x="60" width="70" height="75" as="geometry">
            <mxRectangle width="70" height="75" as="alternateBounds" />
          </mxGeometry>
        </mxCell>
        <mxCell id="_QdN2ZTpumICd109jLUp-47" value="FK" style="shape=partialRectangle;html=1;whiteSpace=wrap;connectable=0;strokeColor=inherit;overflow=hidden;fillColor=none;top=0;left=0;bottom=0;right=0;pointerEvents=1;fontSize=12;" vertex="1" parent="_QdN2ZTpumICd109jLUp-44">
          <mxGeometry x="130" width="51" height="75" as="geometry">
            <mxRectangle width="51" height="75" as="alternateBounds" />
          </mxGeometry>
        </mxCell>
        <mxCell id="_QdN2ZTpumICd109jLUp-327" style="shape=tableRow;horizontal=0;startSize=0;swimlaneHead=0;swimlaneBody=0;strokeColor=inherit;top=0;left=0;bottom=0;right=0;collapsible=0;dropTarget=0;fillColor=none;points=[[0,0.5],[1,0.5]];portConstraint=eastwest;fontSize=16;" vertex="1" parent="_QdN2ZTpumICd109jLUp-39">
          <mxGeometry y="185" width="181" height="75" as="geometry" />
        </mxCell>
        <mxCell id="_QdN2ZTpumICd109jLUp-328" value="String" style="shape=partialRectangle;html=1;whiteSpace=wrap;connectable=0;strokeColor=inherit;overflow=hidden;fillColor=none;top=0;left=0;bottom=0;right=0;pointerEvents=1;fontSize=12;" vertex="1" parent="_QdN2ZTpumICd109jLUp-327">
          <mxGeometry width="60" height="75" as="geometry">
            <mxRectangle width="60" height="75" as="alternateBounds" />
          </mxGeometry>
        </mxCell>
        <mxCell id="_QdN2ZTpumICd109jLUp-329" value="Country" style="shape=partialRectangle;html=1;whiteSpace=wrap;connectable=0;strokeColor=inherit;overflow=hidden;fillColor=none;top=0;left=0;bottom=0;right=0;pointerEvents=1;fontSize=12;" vertex="1" parent="_QdN2ZTpumICd109jLUp-327">
          <mxGeometry x="60" width="70" height="75" as="geometry">
            <mxRectangle width="70" height="75" as="alternateBounds" />
          </mxGeometry>
        </mxCell>
        <mxCell id="_QdN2ZTpumICd109jLUp-330" style="shape=partialRectangle;html=1;whiteSpace=wrap;connectable=0;strokeColor=inherit;overflow=hidden;fillColor=none;top=0;left=0;bottom=0;right=0;pointerEvents=1;fontSize=12;" vertex="1" parent="_QdN2ZTpumICd109jLUp-327">
          <mxGeometry x="130" width="51" height="75" as="geometry">
            <mxRectangle width="51" height="75" as="alternateBounds" />
          </mxGeometry>
        </mxCell>
        <mxCell id="_QdN2ZTpumICd109jLUp-48" value="" style="shape=tableRow;horizontal=0;startSize=0;swimlaneHead=0;swimlaneBody=0;strokeColor=inherit;top=0;left=0;bottom=0;right=0;collapsible=0;dropTarget=0;fillColor=none;points=[[0,0.5],[1,0.5]];portConstraint=eastwest;fontSize=16;" vertex="1" parent="_QdN2ZTpumICd109jLUp-39">
          <mxGeometry y="260" width="181" height="50" as="geometry" />
        </mxCell>
        <mxCell id="_QdN2ZTpumICd109jLUp-49" value="String" style="shape=partialRectangle;html=1;whiteSpace=wrap;connectable=0;strokeColor=inherit;overflow=hidden;fillColor=none;top=0;left=0;bottom=0;right=0;pointerEvents=1;fontSize=12;" vertex="1" parent="_QdN2ZTpumICd109jLUp-48">
          <mxGeometry width="60" height="50" as="geometry">
            <mxRectangle width="60" height="50" as="alternateBounds" />
          </mxGeometry>
        </mxCell>
        <mxCell id="_QdN2ZTpumICd109jLUp-50" value="Street" style="shape=partialRectangle;html=1;whiteSpace=wrap;connectable=0;strokeColor=inherit;overflow=hidden;fillColor=none;top=0;left=0;bottom=0;right=0;pointerEvents=1;fontSize=12;" vertex="1" parent="_QdN2ZTpumICd109jLUp-48">
          <mxGeometry x="60" width="70" height="50" as="geometry">
            <mxRectangle width="70" height="50" as="alternateBounds" />
          </mxGeometry>
        </mxCell>
        <mxCell id="_QdN2ZTpumICd109jLUp-51" value="" style="shape=partialRectangle;html=1;whiteSpace=wrap;connectable=0;strokeColor=inherit;overflow=hidden;fillColor=none;top=0;left=0;bottom=0;right=0;pointerEvents=1;fontSize=12;" vertex="1" parent="_QdN2ZTpumICd109jLUp-48">
          <mxGeometry x="130" width="51" height="50" as="geometry">
            <mxRectangle width="51" height="50" as="alternateBounds" />
          </mxGeometry>
        </mxCell>
        <mxCell id="_QdN2ZTpumICd109jLUp-52" value="" style="shape=tableRow;horizontal=0;startSize=0;swimlaneHead=0;swimlaneBody=0;strokeColor=inherit;top=0;left=0;bottom=0;right=0;collapsible=0;dropTarget=0;fillColor=none;points=[[0,0.5],[1,0.5]];portConstraint=eastwest;fontSize=16;" vertex="1" parent="_QdN2ZTpumICd109jLUp-39">
          <mxGeometry y="310" width="181" height="57" as="geometry" />
        </mxCell>
        <mxCell id="_QdN2ZTpumICd109jLUp-53" value="String" style="shape=partialRectangle;html=1;whiteSpace=wrap;connectable=0;strokeColor=inherit;overflow=hidden;fillColor=none;top=0;left=0;bottom=0;right=0;pointerEvents=1;fontSize=12;" vertex="1" parent="_QdN2ZTpumICd109jLUp-52">
          <mxGeometry width="60" height="57" as="geometry">
            <mxRectangle width="60" height="57" as="alternateBounds" />
          </mxGeometry>
        </mxCell>
        <mxCell id="_QdN2ZTpumICd109jLUp-54" value="City" style="shape=partialRectangle;html=1;whiteSpace=wrap;connectable=0;strokeColor=inherit;overflow=hidden;fillColor=none;top=0;left=0;bottom=0;right=0;pointerEvents=1;fontSize=12;" vertex="1" parent="_QdN2ZTpumICd109jLUp-52">
          <mxGeometry x="60" width="70" height="57" as="geometry">
            <mxRectangle width="70" height="57" as="alternateBounds" />
          </mxGeometry>
        </mxCell>
        <mxCell id="_QdN2ZTpumICd109jLUp-55" value="" style="shape=partialRectangle;html=1;whiteSpace=wrap;connectable=0;strokeColor=inherit;overflow=hidden;fillColor=none;top=0;left=0;bottom=0;right=0;pointerEvents=1;fontSize=12;" vertex="1" parent="_QdN2ZTpumICd109jLUp-52">
          <mxGeometry x="130" width="51" height="57" as="geometry">
            <mxRectangle width="51" height="57" as="alternateBounds" />
          </mxGeometry>
        </mxCell>
        <mxCell id="_QdN2ZTpumICd109jLUp-56" style="shape=tableRow;horizontal=0;startSize=0;swimlaneHead=0;swimlaneBody=0;strokeColor=inherit;top=0;left=0;bottom=0;right=0;collapsible=0;dropTarget=0;fillColor=none;points=[[0,0.5],[1,0.5]];portConstraint=eastwest;fontSize=16;" vertex="1" parent="_QdN2ZTpumICd109jLUp-39">
          <mxGeometry y="367" width="181" height="57" as="geometry" />
        </mxCell>
        <mxCell id="_QdN2ZTpumICd109jLUp-57" value="String" style="shape=partialRectangle;html=1;whiteSpace=wrap;connectable=0;strokeColor=inherit;overflow=hidden;fillColor=none;top=0;left=0;bottom=0;right=0;pointerEvents=1;fontSize=12;" vertex="1" parent="_QdN2ZTpumICd109jLUp-56">
          <mxGeometry width="60" height="57" as="geometry">
            <mxRectangle width="60" height="57" as="alternateBounds" />
          </mxGeometry>
        </mxCell>
        <mxCell id="_QdN2ZTpumICd109jLUp-58" value="Postal Code" style="shape=partialRectangle;html=1;whiteSpace=wrap;connectable=0;strokeColor=inherit;overflow=hidden;fillColor=none;top=0;left=0;bottom=0;right=0;pointerEvents=1;fontSize=12;" vertex="1" parent="_QdN2ZTpumICd109jLUp-56">
          <mxGeometry x="60" width="70" height="57" as="geometry">
            <mxRectangle width="70" height="57" as="alternateBounds" />
          </mxGeometry>
        </mxCell>
        <mxCell id="_QdN2ZTpumICd109jLUp-59" style="shape=partialRectangle;html=1;whiteSpace=wrap;connectable=0;strokeColor=inherit;overflow=hidden;fillColor=none;top=0;left=0;bottom=0;right=0;pointerEvents=1;fontSize=12;" vertex="1" parent="_QdN2ZTpumICd109jLUp-56">
          <mxGeometry x="130" width="51" height="57" as="geometry">
            <mxRectangle width="51" height="57" as="alternateBounds" />
          </mxGeometry>
        </mxCell>
        <mxCell id="_QdN2ZTpumICd109jLUp-60" style="shape=tableRow;horizontal=0;startSize=0;swimlaneHead=0;swimlaneBody=0;strokeColor=inherit;top=0;left=0;bottom=0;right=0;collapsible=0;dropTarget=0;fillColor=none;points=[[0,0.5],[1,0.5]];portConstraint=eastwest;fontSize=16;" vertex="1" parent="_QdN2ZTpumICd109jLUp-39">
          <mxGeometry y="424" width="181" height="57" as="geometry" />
        </mxCell>
        <mxCell id="_QdN2ZTpumICd109jLUp-61" value="Boolean" style="shape=partialRectangle;html=1;whiteSpace=wrap;connectable=0;strokeColor=inherit;overflow=hidden;fillColor=none;top=0;left=0;bottom=0;right=0;pointerEvents=1;fontSize=12;" vertex="1" parent="_QdN2ZTpumICd109jLUp-60">
          <mxGeometry width="60" height="57" as="geometry">
            <mxRectangle width="60" height="57" as="alternateBounds" />
          </mxGeometry>
        </mxCell>
        <mxCell id="_QdN2ZTpumICd109jLUp-62" value="is_default" style="shape=partialRectangle;html=1;whiteSpace=wrap;connectable=0;strokeColor=inherit;overflow=hidden;fillColor=none;top=0;left=0;bottom=0;right=0;pointerEvents=1;fontSize=12;" vertex="1" parent="_QdN2ZTpumICd109jLUp-60">
          <mxGeometry x="60" width="70" height="57" as="geometry">
            <mxRectangle width="70" height="57" as="alternateBounds" />
          </mxGeometry>
        </mxCell>
        <mxCell id="_QdN2ZTpumICd109jLUp-63" value="default = false" style="shape=partialRectangle;html=1;whiteSpace=wrap;connectable=0;strokeColor=inherit;overflow=hidden;fillColor=none;top=0;left=0;bottom=0;right=0;pointerEvents=1;fontSize=12;" vertex="1" parent="_QdN2ZTpumICd109jLUp-60">
          <mxGeometry x="130" width="51" height="57" as="geometry">
            <mxRectangle width="51" height="57" as="alternateBounds" />
          </mxGeometry>
        </mxCell>
        <mxCell id="_QdN2ZTpumICd109jLUp-64" value="Customer can refuse to save his address.&lt;br&gt;&lt;br&gt;He can insert it every time he places an order." style="shape=note;size=20;whiteSpace=wrap;html=1;" vertex="1" parent="1">
          <mxGeometry x="370" y="-30" width="100" height="100" as="geometry" />
        </mxCell>
        <mxCell id="_QdN2ZTpumICd109jLUp-65" value="" style="edgeStyle=entityRelationEdgeStyle;fontSize=12;html=1;endArrow=ERzeroToMany;endFill=1;rounded=0;" edge="1" parent="1" source="_QdN2ZTpumICd109jLUp-18" target="_QdN2ZTpumICd109jLUp-44">
          <mxGeometry width="100" height="100" relative="1" as="geometry">
            <mxPoint x="240" y="390" as="sourcePoint" />
            <mxPoint x="340" y="290" as="targetPoint" />
          </mxGeometry>
        </mxCell>
        <mxCell id="_QdN2ZTpumICd109jLUp-66" value="Cart" style="shape=table;startSize=30;container=1;collapsible=0;childLayout=tableLayout;strokeColor=default;fontSize=16;" vertex="1" parent="1">
          <mxGeometry x="10" y="700" width="180" height="270" as="geometry" />
        </mxCell>
        <mxCell id="_QdN2ZTpumICd109jLUp-67" value="" style="shape=tableRow;horizontal=0;startSize=0;swimlaneHead=0;swimlaneBody=0;strokeColor=inherit;top=0;left=0;bottom=0;right=0;collapsible=0;dropTarget=0;fillColor=none;points=[[0,0.5],[1,0.5]];portConstraint=eastwest;fontSize=16;" vertex="1" parent="_QdN2ZTpumICd109jLUp-66">
          <mxGeometry y="30" width="180" height="60" as="geometry" />
        </mxCell>
        <mxCell id="_QdN2ZTpumICd109jLUp-68" value="&lt;span&gt;UUID&lt;/span&gt;" style="shape=partialRectangle;html=1;whiteSpace=wrap;connectable=0;strokeColor=inherit;overflow=hidden;fillColor=none;top=0;left=0;bottom=0;right=0;pointerEvents=1;fontSize=11;align=center;" vertex="1" parent="_QdN2ZTpumICd109jLUp-67">
          <mxGeometry width="60" height="60" as="geometry">
            <mxRectangle width="60" height="60" as="alternateBounds" />
          </mxGeometry>
        </mxCell>
        <mxCell id="_QdN2ZTpumICd109jLUp-69" value="cart_id" style="shape=partialRectangle;html=1;whiteSpace=wrap;connectable=0;strokeColor=inherit;overflow=hidden;fillColor=none;top=0;left=0;bottom=0;right=0;pointerEvents=1;fontSize=11;" vertex="1" parent="_QdN2ZTpumICd109jLUp-67">
          <mxGeometry x="60" width="60" height="60" as="geometry">
            <mxRectangle width="60" height="60" as="alternateBounds" />
          </mxGeometry>
        </mxCell>
        <mxCell id="_QdN2ZTpumICd109jLUp-70" value="PK Not null&lt;br&gt;Uniq" style="shape=partialRectangle;html=1;whiteSpace=wrap;connectable=0;strokeColor=inherit;overflow=hidden;fillColor=none;top=0;left=0;bottom=0;right=0;pointerEvents=1;fontSize=11;" vertex="1" parent="_QdN2ZTpumICd109jLUp-67">
          <mxGeometry x="120" width="60" height="60" as="geometry">
            <mxRectangle width="60" height="60" as="alternateBounds" />
          </mxGeometry>
        </mxCell>
        <mxCell id="_QdN2ZTpumICd109jLUp-71" value="" style="shape=tableRow;horizontal=0;startSize=0;swimlaneHead=0;swimlaneBody=0;strokeColor=inherit;top=0;left=0;bottom=0;right=0;collapsible=0;dropTarget=0;fillColor=none;points=[[0,0.5],[1,0.5]];portConstraint=eastwest;fontSize=16;" vertex="1" parent="_QdN2ZTpumICd109jLUp-66">
          <mxGeometry y="90" width="180" height="60" as="geometry" />
        </mxCell>
        <mxCell id="_QdN2ZTpumICd109jLUp-72" value="UUID" style="shape=partialRectangle;html=1;whiteSpace=wrap;connectable=0;strokeColor=inherit;overflow=hidden;fillColor=none;top=0;left=0;bottom=0;right=0;pointerEvents=1;fontSize=11;" vertex="1" parent="_QdN2ZTpumICd109jLUp-71">
          <mxGeometry width="60" height="60" as="geometry">
            <mxRectangle width="60" height="60" as="alternateBounds" />
          </mxGeometry>
        </mxCell>
        <mxCell id="_QdN2ZTpumICd109jLUp-73" value="customer_id" style="shape=partialRectangle;html=1;whiteSpace=wrap;connectable=0;strokeColor=inherit;overflow=hidden;fillColor=none;top=0;left=0;bottom=0;right=0;pointerEvents=1;fontSize=11;" vertex="1" parent="_QdN2ZTpumICd109jLUp-71">
          <mxGeometry x="60" width="60" height="60" as="geometry">
            <mxRectangle width="60" height="60" as="alternateBounds" />
          </mxGeometry>
        </mxCell>
        <mxCell id="_QdN2ZTpumICd109jLUp-74" value="FK" style="shape=partialRectangle;html=1;whiteSpace=wrap;connectable=0;strokeColor=inherit;overflow=hidden;fillColor=none;top=0;left=0;bottom=0;right=0;pointerEvents=1;fontSize=11;" vertex="1" parent="_QdN2ZTpumICd109jLUp-71">
          <mxGeometry x="120" width="60" height="60" as="geometry">
            <mxRectangle width="60" height="60" as="alternateBounds" />
          </mxGeometry>
        </mxCell>
        <mxCell id="_QdN2ZTpumICd109jLUp-75" value="" style="shape=tableRow;horizontal=0;startSize=0;swimlaneHead=0;swimlaneBody=0;strokeColor=inherit;top=0;left=0;bottom=0;right=0;collapsible=0;dropTarget=0;fillColor=none;points=[[0,0.5],[1,0.5]];portConstraint=eastwest;fontSize=16;" vertex="1" parent="_QdN2ZTpumICd109jLUp-66">
          <mxGeometry y="150" width="180" height="60" as="geometry" />
        </mxCell>
        <mxCell id="_QdN2ZTpumICd109jLUp-76" value="Timestamp" style="shape=partialRectangle;html=1;whiteSpace=wrap;connectable=0;strokeColor=inherit;overflow=hidden;fillColor=none;top=0;left=0;bottom=0;right=0;pointerEvents=1;fontSize=11;" vertex="1" parent="_QdN2ZTpumICd109jLUp-75">
          <mxGeometry width="60" height="60" as="geometry">
            <mxRectangle width="60" height="60" as="alternateBounds" />
          </mxGeometry>
        </mxCell>
        <mxCell id="_QdN2ZTpumICd109jLUp-77" value="created_at" style="shape=partialRectangle;html=1;whiteSpace=wrap;connectable=0;strokeColor=inherit;overflow=hidden;fillColor=none;top=0;left=0;bottom=0;right=0;pointerEvents=1;fontSize=11;" vertex="1" parent="_QdN2ZTpumICd109jLUp-75">
          <mxGeometry x="60" width="60" height="60" as="geometry">
            <mxRectangle width="60" height="60" as="alternateBounds" />
          </mxGeometry>
        </mxCell>
        <mxCell id="_QdN2ZTpumICd109jLUp-78" value="Not Null" style="shape=partialRectangle;html=1;whiteSpace=wrap;connectable=0;strokeColor=inherit;overflow=hidden;fillColor=none;top=0;left=0;bottom=0;right=0;pointerEvents=1;fontSize=11;" vertex="1" parent="_QdN2ZTpumICd109jLUp-75">
          <mxGeometry x="120" width="60" height="60" as="geometry">
            <mxRectangle width="60" height="60" as="alternateBounds" />
          </mxGeometry>
        </mxCell>
        <mxCell id="_QdN2ZTpumICd109jLUp-79" style="shape=tableRow;horizontal=0;startSize=0;swimlaneHead=0;swimlaneBody=0;strokeColor=inherit;top=0;left=0;bottom=0;right=0;collapsible=0;dropTarget=0;fillColor=none;points=[[0,0.5],[1,0.5]];portConstraint=eastwest;fontSize=16;" vertex="1" parent="_QdN2ZTpumICd109jLUp-66">
          <mxGeometry y="210" width="180" height="60" as="geometry" />
        </mxCell>
        <mxCell id="_QdN2ZTpumICd109jLUp-80" value="Timestamp" style="shape=partialRectangle;html=1;whiteSpace=wrap;connectable=0;strokeColor=inherit;overflow=hidden;fillColor=none;top=0;left=0;bottom=0;right=0;pointerEvents=1;fontSize=11;" vertex="1" parent="_QdN2ZTpumICd109jLUp-79">
          <mxGeometry width="60" height="60" as="geometry">
            <mxRectangle width="60" height="60" as="alternateBounds" />
          </mxGeometry>
        </mxCell>
        <mxCell id="_QdN2ZTpumICd109jLUp-81" value="updated_at" style="shape=partialRectangle;html=1;whiteSpace=wrap;connectable=0;strokeColor=inherit;overflow=hidden;fillColor=none;top=0;left=0;bottom=0;right=0;pointerEvents=1;fontSize=11;" vertex="1" parent="_QdN2ZTpumICd109jLUp-79">
          <mxGeometry x="60" width="60" height="60" as="geometry">
            <mxRectangle width="60" height="60" as="alternateBounds" />
          </mxGeometry>
        </mxCell>
        <mxCell id="_QdN2ZTpumICd109jLUp-82" value="Not Null" style="shape=partialRectangle;html=1;whiteSpace=wrap;connectable=0;strokeColor=inherit;overflow=hidden;fillColor=none;top=0;left=0;bottom=0;right=0;pointerEvents=1;fontSize=11;" vertex="1" parent="_QdN2ZTpumICd109jLUp-79">
          <mxGeometry x="120" width="60" height="60" as="geometry">
            <mxRectangle width="60" height="60" as="alternateBounds" />
          </mxGeometry>
        </mxCell>
        <mxCell id="_QdN2ZTpumICd109jLUp-83" value="" style="edgeStyle=entityRelationEdgeStyle;fontSize=12;html=1;endArrow=ERmandOne;startArrow=ERmandOne;rounded=0;entryX=0.5;entryY=1;entryDx=0;entryDy=0;exitX=0.5;exitY=0;exitDx=0;exitDy=0;" edge="1" parent="1" source="_QdN2ZTpumICd109jLUp-66" target="_QdN2ZTpumICd109jLUp-34">
          <mxGeometry width="100" height="100" relative="1" as="geometry">
            <mxPoint x="100" y="680" as="sourcePoint" />
            <mxPoint x="200" y="580" as="targetPoint" />
          </mxGeometry>
        </mxCell>
        <mxCell id="_QdN2ZTpumICd109jLUp-84" value="One Active Cart&lt;br&gt;per&lt;br&gt;Customer." style="shape=note;size=20;whiteSpace=wrap;html=1;" vertex="1" parent="1">
          <mxGeometry x="-140" y="670" width="100" height="100" as="geometry" />
        </mxCell>
        <mxCell id="_QdN2ZTpumICd109jLUp-85" value="" style="endArrow=classic;html=1;rounded=0;exitX=0;exitY=0.5;exitDx=0;exitDy=0;" edge="1" parent="1" source="_QdN2ZTpumICd109jLUp-71" target="_QdN2ZTpumICd109jLUp-84">
          <mxGeometry width="50" height="50" relative="1" as="geometry">
            <mxPoint x="260" y="890" as="sourcePoint" />
            <mxPoint x="310" y="840" as="targetPoint" />
          </mxGeometry>
        </mxCell>
        <mxCell id="_QdN2ZTpumICd109jLUp-86" value="customer_payment_methods" style="shape=table;startSize=30;container=1;collapsible=0;childLayout=tableLayout;strokeColor=default;fontSize=16;" vertex="1" parent="1">
          <mxGeometry x="-335" y="210" width="265" height="430" as="geometry" />
        </mxCell>
        <mxCell id="_QdN2ZTpumICd109jLUp-87" value="" style="shape=tableRow;horizontal=0;startSize=0;swimlaneHead=0;swimlaneBody=0;strokeColor=inherit;top=0;left=0;bottom=0;right=0;collapsible=0;dropTarget=0;fillColor=none;points=[[0,0.5],[1,0.5]];portConstraint=eastwest;fontSize=16;" vertex="1" parent="_QdN2ZTpumICd109jLUp-86">
          <mxGeometry y="30" width="265" height="40" as="geometry" />
        </mxCell>
        <mxCell id="_QdN2ZTpumICd109jLUp-88" value="UUID" style="shape=partialRectangle;html=1;whiteSpace=wrap;connectable=0;strokeColor=inherit;overflow=hidden;fillColor=none;top=0;left=0;bottom=0;right=0;pointerEvents=1;fontSize=12;" vertex="1" parent="_QdN2ZTpumICd109jLUp-87">
          <mxGeometry width="71" height="40" as="geometry">
            <mxRectangle width="71" height="40" as="alternateBounds" />
          </mxGeometry>
        </mxCell>
        <mxCell id="_QdN2ZTpumICd109jLUp-89" value="id" style="shape=partialRectangle;html=1;whiteSpace=wrap;connectable=0;strokeColor=inherit;overflow=hidden;fillColor=none;top=0;left=0;bottom=0;right=0;pointerEvents=1;fontSize=12;" vertex="1" parent="_QdN2ZTpumICd109jLUp-87">
          <mxGeometry x="71" width="154" height="40" as="geometry">
            <mxRectangle width="154" height="40" as="alternateBounds" />
          </mxGeometry>
        </mxCell>
        <mxCell id="_QdN2ZTpumICd109jLUp-90" value="PK" style="shape=partialRectangle;html=1;whiteSpace=wrap;connectable=0;strokeColor=inherit;overflow=hidden;fillColor=none;top=0;left=0;bottom=0;right=0;pointerEvents=1;fontSize=12;" vertex="1" parent="_QdN2ZTpumICd109jLUp-87">
          <mxGeometry x="225" width="40" height="40" as="geometry">
            <mxRectangle width="40" height="40" as="alternateBounds" />
          </mxGeometry>
        </mxCell>
        <mxCell id="_QdN2ZTpumICd109jLUp-91" style="shape=tableRow;horizontal=0;startSize=0;swimlaneHead=0;swimlaneBody=0;strokeColor=inherit;top=0;left=0;bottom=0;right=0;collapsible=0;dropTarget=0;fillColor=none;points=[[0,0.5],[1,0.5]];portConstraint=eastwest;fontSize=16;" vertex="1" parent="_QdN2ZTpumICd109jLUp-86">
          <mxGeometry y="70" width="265" height="40" as="geometry" />
        </mxCell>
        <mxCell id="_QdN2ZTpumICd109jLUp-92" value="UUID" style="shape=partialRectangle;html=1;whiteSpace=wrap;connectable=0;strokeColor=inherit;overflow=hidden;fillColor=none;top=0;left=0;bottom=0;right=0;pointerEvents=1;fontSize=12;" vertex="1" parent="_QdN2ZTpumICd109jLUp-91">
          <mxGeometry width="71" height="40" as="geometry">
            <mxRectangle width="71" height="40" as="alternateBounds" />
          </mxGeometry>
        </mxCell>
        <mxCell id="_QdN2ZTpumICd109jLUp-93" value="customer_id" style="shape=partialRectangle;html=1;whiteSpace=wrap;connectable=0;strokeColor=inherit;overflow=hidden;fillColor=none;top=0;left=0;bottom=0;right=0;pointerEvents=1;fontSize=12;" vertex="1" parent="_QdN2ZTpumICd109jLUp-91">
          <mxGeometry x="71" width="154" height="40" as="geometry">
            <mxRectangle width="154" height="40" as="alternateBounds" />
          </mxGeometry>
        </mxCell>
        <mxCell id="_QdN2ZTpumICd109jLUp-94" value="FK" style="shape=partialRectangle;html=1;whiteSpace=wrap;connectable=0;strokeColor=inherit;overflow=hidden;fillColor=none;top=0;left=0;bottom=0;right=0;pointerEvents=1;fontSize=12;" vertex="1" parent="_QdN2ZTpumICd109jLUp-91">
          <mxGeometry x="225" width="40" height="40" as="geometry">
            <mxRectangle width="40" height="40" as="alternateBounds" />
          </mxGeometry>
        </mxCell>
        <mxCell id="_QdN2ZTpumICd109jLUp-95" value="" style="shape=tableRow;horizontal=0;startSize=0;swimlaneHead=0;swimlaneBody=0;strokeColor=inherit;top=0;left=0;bottom=0;right=0;collapsible=0;dropTarget=0;fillColor=none;points=[[0,0.5],[1,0.5]];portConstraint=eastwest;fontSize=16;" vertex="1" parent="_QdN2ZTpumICd109jLUp-86">
          <mxGeometry y="110" width="265" height="40" as="geometry" />
        </mxCell>
        <mxCell id="_QdN2ZTpumICd109jLUp-96" value="String" style="shape=partialRectangle;html=1;whiteSpace=wrap;connectable=0;strokeColor=inherit;overflow=hidden;fillColor=none;top=0;left=0;bottom=0;right=0;pointerEvents=1;fontSize=12;" vertex="1" parent="_QdN2ZTpumICd109jLUp-95">
          <mxGeometry width="71" height="40" as="geometry">
            <mxRectangle width="71" height="40" as="alternateBounds" />
          </mxGeometry>
        </mxCell>
        <mxCell id="_QdN2ZTpumICd109jLUp-97" value="&lt;font style=&quot;font-size: 9px;&quot;&gt;provider&lt;/font&gt;" style="shape=partialRectangle;html=1;whiteSpace=wrap;connectable=0;strokeColor=inherit;overflow=hidden;fillColor=none;top=0;left=0;bottom=0;right=0;pointerEvents=1;fontSize=12;" vertex="1" parent="_QdN2ZTpumICd109jLUp-95">
          <mxGeometry x="71" width="154" height="40" as="geometry">
            <mxRectangle width="154" height="40" as="alternateBounds" />
          </mxGeometry>
        </mxCell>
        <mxCell id="_QdN2ZTpumICd109jLUp-98" value="Not null" style="shape=partialRectangle;html=1;whiteSpace=wrap;connectable=0;strokeColor=inherit;overflow=hidden;fillColor=none;top=0;left=0;bottom=0;right=0;pointerEvents=1;fontSize=12;" vertex="1" parent="_QdN2ZTpumICd109jLUp-95">
          <mxGeometry x="225" width="40" height="40" as="geometry">
            <mxRectangle width="40" height="40" as="alternateBounds" />
          </mxGeometry>
        </mxCell>
        <mxCell id="_QdN2ZTpumICd109jLUp-99" value="" style="shape=tableRow;horizontal=0;startSize=0;swimlaneHead=0;swimlaneBody=0;strokeColor=inherit;top=0;left=0;bottom=0;right=0;collapsible=0;dropTarget=0;fillColor=none;points=[[0,0.5],[1,0.5]];portConstraint=eastwest;fontSize=16;" vertex="1" parent="_QdN2ZTpumICd109jLUp-86">
          <mxGeometry y="150" width="265" height="40" as="geometry" />
        </mxCell>
        <mxCell id="_QdN2ZTpumICd109jLUp-100" value="text" style="shape=partialRectangle;html=1;whiteSpace=wrap;connectable=0;strokeColor=inherit;overflow=hidden;fillColor=none;top=0;left=0;bottom=0;right=0;pointerEvents=1;fontSize=12;" vertex="1" parent="_QdN2ZTpumICd109jLUp-99">
          <mxGeometry width="71" height="40" as="geometry">
            <mxRectangle width="71" height="40" as="alternateBounds" />
          </mxGeometry>
        </mxCell>
        <mxCell id="_QdN2ZTpumICd109jLUp-101" value="&lt;font style=&quot;font-size: 10px;&quot;&gt;&lt;code style=&quot;&quot; data-end=&quot;507&quot; data-start=&quot;479&quot;&gt;provider_payment_method_token&lt;/code&gt;&amp;nbsp;&lt;/font&gt;" style="shape=partialRectangle;html=1;whiteSpace=wrap;connectable=0;strokeColor=inherit;overflow=hidden;fillColor=none;top=0;left=0;bottom=0;right=0;pointerEvents=1;fontSize=12;" vertex="1" parent="_QdN2ZTpumICd109jLUp-99">
          <mxGeometry x="71" width="154" height="40" as="geometry">
            <mxRectangle width="154" height="40" as="alternateBounds" />
          </mxGeometry>
        </mxCell>
        <mxCell id="_QdN2ZTpumICd109jLUp-102" value="Not&lt;br&gt;Null" style="shape=partialRectangle;html=1;whiteSpace=wrap;connectable=0;strokeColor=inherit;overflow=hidden;fillColor=none;top=0;left=0;bottom=0;right=0;pointerEvents=1;fontSize=12;" vertex="1" parent="_QdN2ZTpumICd109jLUp-99">
          <mxGeometry x="225" width="40" height="40" as="geometry">
            <mxRectangle width="40" height="40" as="alternateBounds" />
          </mxGeometry>
        </mxCell>
        <mxCell id="_QdN2ZTpumICd109jLUp-103" style="shape=tableRow;horizontal=0;startSize=0;swimlaneHead=0;swimlaneBody=0;strokeColor=inherit;top=0;left=0;bottom=0;right=0;collapsible=0;dropTarget=0;fillColor=none;points=[[0,0.5],[1,0.5]];portConstraint=eastwest;fontSize=16;" vertex="1" parent="_QdN2ZTpumICd109jLUp-86">
          <mxGeometry y="190" width="265" height="40" as="geometry" />
        </mxCell>
        <mxCell id="_QdN2ZTpumICd109jLUp-104" value="String" style="shape=partialRectangle;html=1;whiteSpace=wrap;connectable=0;strokeColor=inherit;overflow=hidden;fillColor=none;top=0;left=0;bottom=0;right=0;pointerEvents=1;fontSize=12;" vertex="1" parent="_QdN2ZTpumICd109jLUp-103">
          <mxGeometry width="71" height="40" as="geometry">
            <mxRectangle width="71" height="40" as="alternateBounds" />
          </mxGeometry>
        </mxCell>
        <mxCell id="_QdN2ZTpumICd109jLUp-105" value="brand" style="shape=partialRectangle;html=1;whiteSpace=wrap;connectable=0;strokeColor=inherit;overflow=hidden;fillColor=none;top=0;left=0;bottom=0;right=0;pointerEvents=1;fontSize=12;" vertex="1" parent="_QdN2ZTpumICd109jLUp-103">
          <mxGeometry x="71" width="154" height="40" as="geometry">
            <mxRectangle width="154" height="40" as="alternateBounds" />
          </mxGeometry>
        </mxCell>
        <mxCell id="_QdN2ZTpumICd109jLUp-106" value="Not null" style="shape=partialRectangle;html=1;whiteSpace=wrap;connectable=0;strokeColor=inherit;overflow=hidden;fillColor=none;top=0;left=0;bottom=0;right=0;pointerEvents=1;fontSize=12;" vertex="1" parent="_QdN2ZTpumICd109jLUp-103">
          <mxGeometry x="225" width="40" height="40" as="geometry">
            <mxRectangle width="40" height="40" as="alternateBounds" />
          </mxGeometry>
        </mxCell>
        <mxCell id="_QdN2ZTpumICd109jLUp-107" style="shape=tableRow;horizontal=0;startSize=0;swimlaneHead=0;swimlaneBody=0;strokeColor=inherit;top=0;left=0;bottom=0;right=0;collapsible=0;dropTarget=0;fillColor=none;points=[[0,0.5],[1,0.5]];portConstraint=eastwest;fontSize=16;" vertex="1" parent="_QdN2ZTpumICd109jLUp-86">
          <mxGeometry y="230" width="265" height="40" as="geometry" />
        </mxCell>
        <mxCell id="_QdN2ZTpumICd109jLUp-108" value="char(4)" style="shape=partialRectangle;html=1;whiteSpace=wrap;connectable=0;strokeColor=inherit;overflow=hidden;fillColor=none;top=0;left=0;bottom=0;right=0;pointerEvents=1;fontSize=12;" vertex="1" parent="_QdN2ZTpumICd109jLUp-107">
          <mxGeometry width="71" height="40" as="geometry">
            <mxRectangle width="71" height="40" as="alternateBounds" />
          </mxGeometry>
        </mxCell>
        <mxCell id="_QdN2ZTpumICd109jLUp-109" value="last_4" style="shape=partialRectangle;html=1;whiteSpace=wrap;connectable=0;strokeColor=inherit;overflow=hidden;fillColor=none;top=0;left=0;bottom=0;right=0;pointerEvents=1;fontSize=12;" vertex="1" parent="_QdN2ZTpumICd109jLUp-107">
          <mxGeometry x="71" width="154" height="40" as="geometry">
            <mxRectangle width="154" height="40" as="alternateBounds" />
          </mxGeometry>
        </mxCell>
        <mxCell id="_QdN2ZTpumICd109jLUp-110" value="Not Null" style="shape=partialRectangle;html=1;whiteSpace=wrap;connectable=0;strokeColor=inherit;overflow=hidden;fillColor=none;top=0;left=0;bottom=0;right=0;pointerEvents=1;fontSize=12;" vertex="1" parent="_QdN2ZTpumICd109jLUp-107">
          <mxGeometry x="225" width="40" height="40" as="geometry">
            <mxRectangle width="40" height="40" as="alternateBounds" />
          </mxGeometry>
        </mxCell>
        <mxCell id="_QdN2ZTpumICd109jLUp-111" style="shape=tableRow;horizontal=0;startSize=0;swimlaneHead=0;swimlaneBody=0;strokeColor=inherit;top=0;left=0;bottom=0;right=0;collapsible=0;dropTarget=0;fillColor=none;points=[[0,0.5],[1,0.5]];portConstraint=eastwest;fontSize=16;" vertex="1" parent="_QdN2ZTpumICd109jLUp-86">
          <mxGeometry y="270" width="265" height="40" as="geometry" />
        </mxCell>
        <mxCell id="_QdN2ZTpumICd109jLUp-112" value="Timestamp" style="shape=partialRectangle;html=1;whiteSpace=wrap;connectable=0;strokeColor=inherit;overflow=hidden;fillColor=none;top=0;left=0;bottom=0;right=0;pointerEvents=1;fontSize=12;" vertex="1" parent="_QdN2ZTpumICd109jLUp-111">
          <mxGeometry width="71" height="40" as="geometry">
            <mxRectangle width="71" height="40" as="alternateBounds" />
          </mxGeometry>
        </mxCell>
        <mxCell id="_QdN2ZTpumICd109jLUp-113" value="&#xa;&lt;span style=&quot;color: rgb(255, 255, 255); font-family: Helvetica; font-size: 12px; font-style: normal; font-variant-ligatures: normal; font-variant-caps: normal; font-weight: 400; letter-spacing: normal; orphans: 2; text-align: center; text-indent: 0px; text-transform: none; widows: 2; word-spacing: 0px; -webkit-text-stroke-width: 0px; white-space: normal; background-color: rgb(27, 29, 30); text-decoration-thickness: initial; text-decoration-style: initial; text-decoration-color: initial; display: inline !important; float: none;&quot;&gt;created_at&lt;/span&gt;&#xa;&#xa;" style="shape=partialRectangle;html=1;whiteSpace=wrap;connectable=0;strokeColor=inherit;overflow=hidden;fillColor=none;top=0;left=0;bottom=0;right=0;pointerEvents=1;fontSize=12;" vertex="1" parent="_QdN2ZTpumICd109jLUp-111">
          <mxGeometry x="71" width="154" height="40" as="geometry">
            <mxRectangle width="154" height="40" as="alternateBounds" />
          </mxGeometry>
        </mxCell>
        <mxCell id="_QdN2ZTpumICd109jLUp-114" value="Not Null" style="shape=partialRectangle;html=1;whiteSpace=wrap;connectable=0;strokeColor=inherit;overflow=hidden;fillColor=none;top=0;left=0;bottom=0;right=0;pointerEvents=1;fontSize=12;" vertex="1" parent="_QdN2ZTpumICd109jLUp-111">
          <mxGeometry x="225" width="40" height="40" as="geometry">
            <mxRectangle width="40" height="40" as="alternateBounds" />
          </mxGeometry>
        </mxCell>
        <mxCell id="_QdN2ZTpumICd109jLUp-115" style="shape=tableRow;horizontal=0;startSize=0;swimlaneHead=0;swimlaneBody=0;strokeColor=inherit;top=0;left=0;bottom=0;right=0;collapsible=0;dropTarget=0;fillColor=none;points=[[0,0.5],[1,0.5]];portConstraint=eastwest;fontSize=16;" vertex="1" parent="_QdN2ZTpumICd109jLUp-86">
          <mxGeometry y="310" width="265" height="40" as="geometry" />
        </mxCell>
        <mxCell id="_QdN2ZTpumICd109jLUp-116" value="Small&lt;br&gt;Int" style="shape=partialRectangle;html=1;whiteSpace=wrap;connectable=0;strokeColor=inherit;overflow=hidden;fillColor=none;top=0;left=0;bottom=0;right=0;pointerEvents=1;fontSize=12;" vertex="1" parent="_QdN2ZTpumICd109jLUp-115">
          <mxGeometry width="71" height="40" as="geometry">
            <mxRectangle width="71" height="40" as="alternateBounds" />
          </mxGeometry>
        </mxCell>
        <mxCell id="_QdN2ZTpumICd109jLUp-117" value="year_exp" style="shape=partialRectangle;html=1;whiteSpace=wrap;connectable=0;strokeColor=inherit;overflow=hidden;fillColor=none;top=0;left=0;bottom=0;right=0;pointerEvents=1;fontSize=12;" vertex="1" parent="_QdN2ZTpumICd109jLUp-115">
          <mxGeometry x="71" width="154" height="40" as="geometry">
            <mxRectangle width="154" height="40" as="alternateBounds" />
          </mxGeometry>
        </mxCell>
        <mxCell id="_QdN2ZTpumICd109jLUp-118" value="Not Null" style="shape=partialRectangle;html=1;whiteSpace=wrap;connectable=0;strokeColor=inherit;overflow=hidden;fillColor=none;top=0;left=0;bottom=0;right=0;pointerEvents=1;fontSize=12;" vertex="1" parent="_QdN2ZTpumICd109jLUp-115">
          <mxGeometry x="225" width="40" height="40" as="geometry">
            <mxRectangle width="40" height="40" as="alternateBounds" />
          </mxGeometry>
        </mxCell>
        <mxCell id="_QdN2ZTpumICd109jLUp-119" style="shape=tableRow;horizontal=0;startSize=0;swimlaneHead=0;swimlaneBody=0;strokeColor=inherit;top=0;left=0;bottom=0;right=0;collapsible=0;dropTarget=0;fillColor=none;points=[[0,0.5],[1,0.5]];portConstraint=eastwest;fontSize=16;" vertex="1" parent="_QdN2ZTpumICd109jLUp-86">
          <mxGeometry y="350" width="265" height="40" as="geometry" />
        </mxCell>
        <mxCell id="_QdN2ZTpumICd109jLUp-120" value="Small&lt;br&gt;Int" style="shape=partialRectangle;html=1;whiteSpace=wrap;connectable=0;strokeColor=inherit;overflow=hidden;fillColor=none;top=0;left=0;bottom=0;right=0;pointerEvents=1;fontSize=12;" vertex="1" parent="_QdN2ZTpumICd109jLUp-119">
          <mxGeometry width="71" height="40" as="geometry">
            <mxRectangle width="71" height="40" as="alternateBounds" />
          </mxGeometry>
        </mxCell>
        <mxCell id="_QdN2ZTpumICd109jLUp-121" value="month_exp" style="shape=partialRectangle;html=1;whiteSpace=wrap;connectable=0;strokeColor=inherit;overflow=hidden;fillColor=none;top=0;left=0;bottom=0;right=0;pointerEvents=1;fontSize=12;" vertex="1" parent="_QdN2ZTpumICd109jLUp-119">
          <mxGeometry x="71" width="154" height="40" as="geometry">
            <mxRectangle width="154" height="40" as="alternateBounds" />
          </mxGeometry>
        </mxCell>
        <mxCell id="_QdN2ZTpumICd109jLUp-122" value="Not Null" style="shape=partialRectangle;html=1;whiteSpace=wrap;connectable=0;strokeColor=inherit;overflow=hidden;fillColor=none;top=0;left=0;bottom=0;right=0;pointerEvents=1;fontSize=12;" vertex="1" parent="_QdN2ZTpumICd109jLUp-119">
          <mxGeometry x="225" width="40" height="40" as="geometry">
            <mxRectangle width="40" height="40" as="alternateBounds" />
          </mxGeometry>
        </mxCell>
        <mxCell id="_QdN2ZTpumICd109jLUp-123" style="shape=tableRow;horizontal=0;startSize=0;swimlaneHead=0;swimlaneBody=0;strokeColor=inherit;top=0;left=0;bottom=0;right=0;collapsible=0;dropTarget=0;fillColor=none;points=[[0,0.5],[1,0.5]];portConstraint=eastwest;fontSize=16;" vertex="1" parent="_QdN2ZTpumICd109jLUp-86">
          <mxGeometry y="390" width="265" height="40" as="geometry" />
        </mxCell>
        <mxCell id="_QdN2ZTpumICd109jLUp-124" value="Boolean" style="shape=partialRectangle;html=1;whiteSpace=wrap;connectable=0;strokeColor=inherit;overflow=hidden;fillColor=none;top=0;left=0;bottom=0;right=0;pointerEvents=1;fontSize=12;" vertex="1" parent="_QdN2ZTpumICd109jLUp-123">
          <mxGeometry width="71" height="40" as="geometry">
            <mxRectangle width="71" height="40" as="alternateBounds" />
          </mxGeometry>
        </mxCell>
        <mxCell id="_QdN2ZTpumICd109jLUp-125" value="is_default" style="shape=partialRectangle;html=1;whiteSpace=wrap;connectable=0;strokeColor=inherit;overflow=hidden;fillColor=none;top=0;left=0;bottom=0;right=0;pointerEvents=1;fontSize=12;" vertex="1" parent="_QdN2ZTpumICd109jLUp-123">
          <mxGeometry x="71" width="154" height="40" as="geometry">
            <mxRectangle width="154" height="40" as="alternateBounds" />
          </mxGeometry>
        </mxCell>
        <mxCell id="_QdN2ZTpumICd109jLUp-126" value="default&lt;br&gt;false" style="shape=partialRectangle;html=1;whiteSpace=wrap;connectable=0;strokeColor=inherit;overflow=hidden;fillColor=none;top=0;left=0;bottom=0;right=0;pointerEvents=1;fontSize=12;" vertex="1" parent="_QdN2ZTpumICd109jLUp-123">
          <mxGeometry x="225" width="40" height="40" as="geometry">
            <mxRectangle width="40" height="40" as="alternateBounds" />
          </mxGeometry>
        </mxCell>
        <mxCell id="_QdN2ZTpumICd109jLUp-127" value="" style="edgeStyle=entityRelationEdgeStyle;fontSize=12;html=1;endArrow=ERzeroToMany;endFill=1;rounded=0;exitX=0;exitY=0.5;exitDx=0;exitDy=0;" edge="1" parent="1" source="_QdN2ZTpumICd109jLUp-18" target="_QdN2ZTpumICd109jLUp-95">
          <mxGeometry width="100" height="100" relative="1" as="geometry">
            <mxPoint x="-70" y="390" as="sourcePoint" />
            <mxPoint x="30" y="290" as="targetPoint" />
          </mxGeometry>
        </mxCell>
        <mxCell id="_QdN2ZTpumICd109jLUp-128" value="Customer can choose to save his payment info.&lt;br&gt;&lt;br&gt;Optional" style="shape=note;size=20;whiteSpace=wrap;html=1;" vertex="1" parent="1">
          <mxGeometry x="-186" y="70" width="100" height="100" as="geometry" />
        </mxCell>
        <mxCell id="_QdN2ZTpumICd109jLUp-129" value="" style="endArrow=classic;html=1;rounded=0;entryX=0.5;entryY=1;entryDx=0;entryDy=0;entryPerimeter=0;exitX=0.5;exitY=0;exitDx=0;exitDy=0;" edge="1" parent="1" source="_QdN2ZTpumICd109jLUp-86" target="_QdN2ZTpumICd109jLUp-128">
          <mxGeometry width="50" height="50" relative="1" as="geometry">
            <mxPoint x="90" y="260" as="sourcePoint" />
            <mxPoint x="140" y="210" as="targetPoint" />
          </mxGeometry>
        </mxCell>
        <mxCell id="_QdN2ZTpumICd109jLUp-130" value="Products" style="shape=table;startSize=30;container=1;collapsible=0;childLayout=tableLayout;strokeColor=default;fontSize=16;" vertex="1" parent="1">
          <mxGeometry x="580" y="270" width="210" height="579" as="geometry" />
        </mxCell>
        <mxCell id="_QdN2ZTpumICd109jLUp-131" value="" style="shape=tableRow;horizontal=0;startSize=0;swimlaneHead=0;swimlaneBody=0;strokeColor=inherit;top=0;left=0;bottom=0;right=0;collapsible=0;dropTarget=0;fillColor=none;points=[[0,0.5],[1,0.5]];portConstraint=eastwest;fontSize=16;" vertex="1" parent="_QdN2ZTpumICd109jLUp-130">
          <mxGeometry y="30" width="210" height="61" as="geometry" />
        </mxCell>
        <mxCell id="_QdN2ZTpumICd109jLUp-132" value="big int" style="shape=partialRectangle;html=1;whiteSpace=wrap;connectable=0;strokeColor=inherit;overflow=hidden;fillColor=none;top=0;left=0;bottom=0;right=0;pointerEvents=1;fontSize=12;" vertex="1" parent="_QdN2ZTpumICd109jLUp-131">
          <mxGeometry width="70" height="61" as="geometry">
            <mxRectangle width="70" height="61" as="alternateBounds" />
          </mxGeometry>
        </mxCell>
        <mxCell id="_QdN2ZTpumICd109jLUp-133" value="product_id" style="shape=partialRectangle;html=1;whiteSpace=wrap;connectable=0;strokeColor=inherit;overflow=hidden;fillColor=none;top=0;left=0;bottom=0;right=0;pointerEvents=1;fontSize=12;" vertex="1" parent="_QdN2ZTpumICd109jLUp-131">
          <mxGeometry x="70" width="70" height="61" as="geometry">
            <mxRectangle width="70" height="61" as="alternateBounds" />
          </mxGeometry>
        </mxCell>
        <mxCell id="_QdN2ZTpumICd109jLUp-134" value="PK&lt;br&gt;Not Null" style="shape=partialRectangle;html=1;whiteSpace=wrap;connectable=0;strokeColor=inherit;overflow=hidden;fillColor=none;top=0;left=0;bottom=0;right=0;pointerEvents=1;fontSize=12;" vertex="1" parent="_QdN2ZTpumICd109jLUp-131">
          <mxGeometry x="140" width="70" height="61" as="geometry">
            <mxRectangle width="70" height="61" as="alternateBounds" />
          </mxGeometry>
        </mxCell>
        <mxCell id="_QdN2ZTpumICd109jLUp-135" value="" style="shape=tableRow;horizontal=0;startSize=0;swimlaneHead=0;swimlaneBody=0;strokeColor=inherit;top=0;left=0;bottom=0;right=0;collapsible=0;dropTarget=0;fillColor=none;points=[[0,0.5],[1,0.5]];portConstraint=eastwest;fontSize=16;" vertex="1" parent="_QdN2ZTpumICd109jLUp-130">
          <mxGeometry y="91" width="210" height="61" as="geometry" />
        </mxCell>
        <mxCell id="_QdN2ZTpumICd109jLUp-136" value="String" style="shape=partialRectangle;html=1;whiteSpace=wrap;connectable=0;strokeColor=inherit;overflow=hidden;fillColor=none;top=0;left=0;bottom=0;right=0;pointerEvents=1;fontSize=12;" vertex="1" parent="_QdN2ZTpumICd109jLUp-135">
          <mxGeometry width="70" height="61" as="geometry">
            <mxRectangle width="70" height="61" as="alternateBounds" />
          </mxGeometry>
        </mxCell>
        <mxCell id="_QdN2ZTpumICd109jLUp-137" value="Name" style="shape=partialRectangle;html=1;whiteSpace=wrap;connectable=0;strokeColor=inherit;overflow=hidden;fillColor=none;top=0;left=0;bottom=0;right=0;pointerEvents=1;fontSize=12;" vertex="1" parent="_QdN2ZTpumICd109jLUp-135">
          <mxGeometry x="70" width="70" height="61" as="geometry">
            <mxRectangle width="70" height="61" as="alternateBounds" />
          </mxGeometry>
        </mxCell>
        <mxCell id="_QdN2ZTpumICd109jLUp-138" value="Not Null" style="shape=partialRectangle;html=1;whiteSpace=wrap;connectable=0;strokeColor=inherit;overflow=hidden;fillColor=none;top=0;left=0;bottom=0;right=0;pointerEvents=1;fontSize=12;" vertex="1" parent="_QdN2ZTpumICd109jLUp-135">
          <mxGeometry x="140" width="70" height="61" as="geometry">
            <mxRectangle width="70" height="61" as="alternateBounds" />
          </mxGeometry>
        </mxCell>
        <mxCell id="_QdN2ZTpumICd109jLUp-139" style="shape=tableRow;horizontal=0;startSize=0;swimlaneHead=0;swimlaneBody=0;strokeColor=inherit;top=0;left=0;bottom=0;right=0;collapsible=0;dropTarget=0;fillColor=none;points=[[0,0.5],[1,0.5]];portConstraint=eastwest;fontSize=16;" vertex="1" parent="_QdN2ZTpumICd109jLUp-130">
          <mxGeometry y="152" width="210" height="61" as="geometry" />
        </mxCell>
        <mxCell id="_QdN2ZTpumICd109jLUp-140" value="String" style="shape=partialRectangle;html=1;whiteSpace=wrap;connectable=0;strokeColor=inherit;overflow=hidden;fillColor=none;top=0;left=0;bottom=0;right=0;pointerEvents=1;fontSize=12;" vertex="1" parent="_QdN2ZTpumICd109jLUp-139">
          <mxGeometry width="70" height="61" as="geometry">
            <mxRectangle width="70" height="61" as="alternateBounds" />
          </mxGeometry>
        </mxCell>
        <mxCell id="_QdN2ZTpumICd109jLUp-141" value="Description" style="shape=partialRectangle;html=1;whiteSpace=wrap;connectable=0;strokeColor=inherit;overflow=hidden;fillColor=none;top=0;left=0;bottom=0;right=0;pointerEvents=1;fontSize=12;" vertex="1" parent="_QdN2ZTpumICd109jLUp-139">
          <mxGeometry x="70" width="70" height="61" as="geometry">
            <mxRectangle width="70" height="61" as="alternateBounds" />
          </mxGeometry>
        </mxCell>
        <mxCell id="_QdN2ZTpumICd109jLUp-142" value="Not Null" style="shape=partialRectangle;html=1;whiteSpace=wrap;connectable=0;strokeColor=inherit;overflow=hidden;fillColor=none;top=0;left=0;bottom=0;right=0;pointerEvents=1;fontSize=12;" vertex="1" parent="_QdN2ZTpumICd109jLUp-139">
          <mxGeometry x="140" width="70" height="61" as="geometry">
            <mxRectangle width="70" height="61" as="alternateBounds" />
          </mxGeometry>
        </mxCell>
        <mxCell id="_QdN2ZTpumICd109jLUp-143" style="shape=tableRow;horizontal=0;startSize=0;swimlaneHead=0;swimlaneBody=0;strokeColor=inherit;top=0;left=0;bottom=0;right=0;collapsible=0;dropTarget=0;fillColor=none;points=[[0,0.5],[1,0.5]];portConstraint=eastwest;fontSize=16;" vertex="1" parent="_QdN2ZTpumICd109jLUp-130">
          <mxGeometry y="213" width="210" height="61" as="geometry" />
        </mxCell>
        <mxCell id="_QdN2ZTpumICd109jLUp-144" value="JSON" style="shape=partialRectangle;html=1;whiteSpace=wrap;connectable=0;strokeColor=inherit;overflow=hidden;fillColor=none;top=0;left=0;bottom=0;right=0;pointerEvents=1;fontSize=12;" vertex="1" parent="_QdN2ZTpumICd109jLUp-143">
          <mxGeometry width="70" height="61" as="geometry">
            <mxRectangle width="70" height="61" as="alternateBounds" />
          </mxGeometry>
        </mxCell>
        <mxCell id="_QdN2ZTpumICd109jLUp-145" value="Details" style="shape=partialRectangle;html=1;whiteSpace=wrap;connectable=0;strokeColor=inherit;overflow=hidden;fillColor=none;top=0;left=0;bottom=0;right=0;pointerEvents=1;fontSize=12;" vertex="1" parent="_QdN2ZTpumICd109jLUp-143">
          <mxGeometry x="70" width="70" height="61" as="geometry">
            <mxRectangle width="70" height="61" as="alternateBounds" />
          </mxGeometry>
        </mxCell>
        <mxCell id="_QdN2ZTpumICd109jLUp-146" value="Not Null" style="shape=partialRectangle;html=1;whiteSpace=wrap;connectable=0;strokeColor=inherit;overflow=hidden;fillColor=none;top=0;left=0;bottom=0;right=0;pointerEvents=1;fontSize=12;" vertex="1" parent="_QdN2ZTpumICd109jLUp-143">
          <mxGeometry x="140" width="70" height="61" as="geometry">
            <mxRectangle width="70" height="61" as="alternateBounds" />
          </mxGeometry>
        </mxCell>
        <mxCell id="_QdN2ZTpumICd109jLUp-147" style="shape=tableRow;horizontal=0;startSize=0;swimlaneHead=0;swimlaneBody=0;strokeColor=inherit;top=0;left=0;bottom=0;right=0;collapsible=0;dropTarget=0;fillColor=none;points=[[0,0.5],[1,0.5]];portConstraint=eastwest;fontSize=16;" vertex="1" parent="_QdN2ZTpumICd109jLUp-130">
          <mxGeometry y="274" width="210" height="61" as="geometry" />
        </mxCell>
        <mxCell id="_QdN2ZTpumICd109jLUp-148" value="int" style="shape=partialRectangle;html=1;whiteSpace=wrap;connectable=0;strokeColor=inherit;overflow=hidden;fillColor=none;top=0;left=0;bottom=0;right=0;pointerEvents=1;fontSize=12;" vertex="1" parent="_QdN2ZTpumICd109jLUp-147">
          <mxGeometry width="70" height="61" as="geometry">
            <mxRectangle width="70" height="61" as="alternateBounds" />
          </mxGeometry>
        </mxCell>
        <mxCell id="_QdN2ZTpumICd109jLUp-149" value="avail_stock" style="shape=partialRectangle;html=1;whiteSpace=wrap;connectable=0;strokeColor=inherit;overflow=hidden;fillColor=none;top=0;left=0;bottom=0;right=0;pointerEvents=1;fontSize=12;" vertex="1" parent="_QdN2ZTpumICd109jLUp-147">
          <mxGeometry x="70" width="70" height="61" as="geometry">
            <mxRectangle width="70" height="61" as="alternateBounds" />
          </mxGeometry>
        </mxCell>
        <mxCell id="_QdN2ZTpumICd109jLUp-150" value="Not Null" style="shape=partialRectangle;html=1;whiteSpace=wrap;connectable=0;strokeColor=inherit;overflow=hidden;fillColor=none;top=0;left=0;bottom=0;right=0;pointerEvents=1;fontSize=12;" vertex="1" parent="_QdN2ZTpumICd109jLUp-147">
          <mxGeometry x="140" width="70" height="61" as="geometry">
            <mxRectangle width="70" height="61" as="alternateBounds" />
          </mxGeometry>
        </mxCell>
        <mxCell id="_QdN2ZTpumICd109jLUp-151" style="shape=tableRow;horizontal=0;startSize=0;swimlaneHead=0;swimlaneBody=0;strokeColor=inherit;top=0;left=0;bottom=0;right=0;collapsible=0;dropTarget=0;fillColor=none;points=[[0,0.5],[1,0.5]];portConstraint=eastwest;fontSize=16;" vertex="1" parent="_QdN2ZTpumICd109jLUp-130">
          <mxGeometry y="335" width="210" height="61" as="geometry" />
        </mxCell>
        <mxCell id="_QdN2ZTpumICd109jLUp-152" value="decimal" style="shape=partialRectangle;html=1;whiteSpace=wrap;connectable=0;strokeColor=inherit;overflow=hidden;fillColor=none;top=0;left=0;bottom=0;right=0;pointerEvents=1;fontSize=12;" vertex="1" parent="_QdN2ZTpumICd109jLUp-151">
          <mxGeometry width="70" height="61" as="geometry">
            <mxRectangle width="70" height="61" as="alternateBounds" />
          </mxGeometry>
        </mxCell>
        <mxCell id="_QdN2ZTpumICd109jLUp-153" value="price" style="shape=partialRectangle;html=1;whiteSpace=wrap;connectable=0;strokeColor=inherit;overflow=hidden;fillColor=none;top=0;left=0;bottom=0;right=0;pointerEvents=1;fontSize=12;" vertex="1" parent="_QdN2ZTpumICd109jLUp-151">
          <mxGeometry x="70" width="70" height="61" as="geometry">
            <mxRectangle width="70" height="61" as="alternateBounds" />
          </mxGeometry>
        </mxCell>
        <mxCell id="_QdN2ZTpumICd109jLUp-154" value="Not Null" style="shape=partialRectangle;html=1;whiteSpace=wrap;connectable=0;strokeColor=inherit;overflow=hidden;fillColor=none;top=0;left=0;bottom=0;right=0;pointerEvents=1;fontSize=12;" vertex="1" parent="_QdN2ZTpumICd109jLUp-151">
          <mxGeometry x="140" width="70" height="61" as="geometry">
            <mxRectangle width="70" height="61" as="alternateBounds" />
          </mxGeometry>
        </mxCell>
        <mxCell id="_QdN2ZTpumICd109jLUp-155" style="shape=tableRow;horizontal=0;startSize=0;swimlaneHead=0;swimlaneBody=0;strokeColor=inherit;top=0;left=0;bottom=0;right=0;collapsible=0;dropTarget=0;fillColor=none;points=[[0,0.5],[1,0.5]];portConstraint=eastwest;fontSize=16;" vertex="1" parent="_QdN2ZTpumICd109jLUp-130">
          <mxGeometry y="396" width="210" height="61" as="geometry" />
        </mxCell>
        <mxCell id="_QdN2ZTpumICd109jLUp-156" value="timestamp" style="shape=partialRectangle;html=1;whiteSpace=wrap;connectable=0;strokeColor=inherit;overflow=hidden;fillColor=none;top=0;left=0;bottom=0;right=0;pointerEvents=1;fontSize=12;" vertex="1" parent="_QdN2ZTpumICd109jLUp-155">
          <mxGeometry width="70" height="61" as="geometry">
            <mxRectangle width="70" height="61" as="alternateBounds" />
          </mxGeometry>
        </mxCell>
        <mxCell id="_QdN2ZTpumICd109jLUp-157" value="created_at" style="shape=partialRectangle;html=1;whiteSpace=wrap;connectable=0;strokeColor=inherit;overflow=hidden;fillColor=none;top=0;left=0;bottom=0;right=0;pointerEvents=1;fontSize=12;" vertex="1" parent="_QdN2ZTpumICd109jLUp-155">
          <mxGeometry x="70" width="70" height="61" as="geometry">
            <mxRectangle width="70" height="61" as="alternateBounds" />
          </mxGeometry>
        </mxCell>
        <mxCell id="_QdN2ZTpumICd109jLUp-158" value="Not Null" style="shape=partialRectangle;html=1;whiteSpace=wrap;connectable=0;strokeColor=inherit;overflow=hidden;fillColor=none;top=0;left=0;bottom=0;right=0;pointerEvents=1;fontSize=12;" vertex="1" parent="_QdN2ZTpumICd109jLUp-155">
          <mxGeometry x="140" width="70" height="61" as="geometry">
            <mxRectangle width="70" height="61" as="alternateBounds" />
          </mxGeometry>
        </mxCell>
        <mxCell id="_QdN2ZTpumICd109jLUp-159" style="shape=tableRow;horizontal=0;startSize=0;swimlaneHead=0;swimlaneBody=0;strokeColor=inherit;top=0;left=0;bottom=0;right=0;collapsible=0;dropTarget=0;fillColor=none;points=[[0,0.5],[1,0.5]];portConstraint=eastwest;fontSize=16;" vertex="1" parent="_QdN2ZTpumICd109jLUp-130">
          <mxGeometry y="457" width="210" height="61" as="geometry" />
        </mxCell>
        <mxCell id="_QdN2ZTpumICd109jLUp-160" value="timestamp" style="shape=partialRectangle;html=1;whiteSpace=wrap;connectable=0;strokeColor=inherit;overflow=hidden;fillColor=none;top=0;left=0;bottom=0;right=0;pointerEvents=1;fontSize=12;" vertex="1" parent="_QdN2ZTpumICd109jLUp-159">
          <mxGeometry width="70" height="61" as="geometry">
            <mxRectangle width="70" height="61" as="alternateBounds" />
          </mxGeometry>
        </mxCell>
        <mxCell id="_QdN2ZTpumICd109jLUp-161" value="updated_at" style="shape=partialRectangle;html=1;whiteSpace=wrap;connectable=0;strokeColor=inherit;overflow=hidden;fillColor=none;top=0;left=0;bottom=0;right=0;pointerEvents=1;fontSize=12;" vertex="1" parent="_QdN2ZTpumICd109jLUp-159">
          <mxGeometry x="70" width="70" height="61" as="geometry">
            <mxRectangle width="70" height="61" as="alternateBounds" />
          </mxGeometry>
        </mxCell>
        <mxCell id="_QdN2ZTpumICd109jLUp-162" value="Not Null" style="shape=partialRectangle;html=1;whiteSpace=wrap;connectable=0;strokeColor=inherit;overflow=hidden;fillColor=none;top=0;left=0;bottom=0;right=0;pointerEvents=1;fontSize=12;" vertex="1" parent="_QdN2ZTpumICd109jLUp-159">
          <mxGeometry x="140" width="70" height="61" as="geometry">
            <mxRectangle width="70" height="61" as="alternateBounds" />
          </mxGeometry>
        </mxCell>
        <mxCell id="_QdN2ZTpumICd109jLUp-163" style="shape=tableRow;horizontal=0;startSize=0;swimlaneHead=0;swimlaneBody=0;strokeColor=inherit;top=0;left=0;bottom=0;right=0;collapsible=0;dropTarget=0;fillColor=none;points=[[0,0.5],[1,0.5]];portConstraint=eastwest;fontSize=16;" vertex="1" parent="_QdN2ZTpumICd109jLUp-130">
          <mxGeometry y="518" width="210" height="61" as="geometry" />
        </mxCell>
        <mxCell id="_QdN2ZTpumICd109jLUp-164" value="bool" style="shape=partialRectangle;html=1;whiteSpace=wrap;connectable=0;strokeColor=inherit;overflow=hidden;fillColor=none;top=0;left=0;bottom=0;right=0;pointerEvents=1;fontSize=12;" vertex="1" parent="_QdN2ZTpumICd109jLUp-163">
          <mxGeometry width="70" height="61" as="geometry">
            <mxRectangle width="70" height="61" as="alternateBounds" />
          </mxGeometry>
        </mxCell>
        <mxCell id="_QdN2ZTpumICd109jLUp-165" value="is_active" style="shape=partialRectangle;html=1;whiteSpace=wrap;connectable=0;strokeColor=inherit;overflow=hidden;fillColor=none;top=0;left=0;bottom=0;right=0;pointerEvents=1;fontSize=12;" vertex="1" parent="_QdN2ZTpumICd109jLUp-163">
          <mxGeometry x="70" width="70" height="61" as="geometry">
            <mxRectangle width="70" height="61" as="alternateBounds" />
          </mxGeometry>
        </mxCell>
        <mxCell id="_QdN2ZTpumICd109jLUp-166" value="default&lt;br&gt;true" style="shape=partialRectangle;html=1;whiteSpace=wrap;connectable=0;strokeColor=inherit;overflow=hidden;fillColor=none;top=0;left=0;bottom=0;right=0;pointerEvents=1;fontSize=12;" vertex="1" parent="_QdN2ZTpumICd109jLUp-163">
          <mxGeometry x="140" width="70" height="61" as="geometry">
            <mxRectangle width="70" height="61" as="alternateBounds" />
          </mxGeometry>
        </mxCell>
        <mxCell id="_QdN2ZTpumICd109jLUp-167" value="cart_item" style="shape=table;startSize=30;container=1;collapsible=0;childLayout=tableLayout;strokeColor=default;fontSize=16;" vertex="1" parent="1">
          <mxGeometry x="299.5" y="630" width="220" height="320" as="geometry" />
        </mxCell>
        <mxCell id="_QdN2ZTpumICd109jLUp-168" value="" style="shape=tableRow;horizontal=0;startSize=0;swimlaneHead=0;swimlaneBody=0;strokeColor=inherit;top=0;left=0;bottom=0;right=0;collapsible=0;dropTarget=0;fillColor=none;points=[[0,0.5],[1,0.5]];portConstraint=eastwest;fontSize=16;" vertex="1" parent="_QdN2ZTpumICd109jLUp-167">
          <mxGeometry y="30" width="220" height="40" as="geometry" />
        </mxCell>
        <mxCell id="_QdN2ZTpumICd109jLUp-169" value="big int" style="shape=partialRectangle;html=1;whiteSpace=wrap;connectable=0;strokeColor=inherit;overflow=hidden;fillColor=none;top=0;left=0;bottom=0;right=0;pointerEvents=1;fontSize=12;" vertex="1" parent="_QdN2ZTpumICd109jLUp-168">
          <mxGeometry width="69" height="40" as="geometry">
            <mxRectangle width="69" height="40" as="alternateBounds" />
          </mxGeometry>
        </mxCell>
        <mxCell id="_QdN2ZTpumICd109jLUp-170" value="cart_item_id" style="shape=partialRectangle;html=1;whiteSpace=wrap;connectable=0;strokeColor=inherit;overflow=hidden;fillColor=none;top=0;left=0;bottom=0;right=0;pointerEvents=1;fontSize=12;" vertex="1" parent="_QdN2ZTpumICd109jLUp-168">
          <mxGeometry x="69" width="82" height="40" as="geometry">
            <mxRectangle width="82" height="40" as="alternateBounds" />
          </mxGeometry>
        </mxCell>
        <mxCell id="_QdN2ZTpumICd109jLUp-171" value="PK" style="shape=partialRectangle;html=1;whiteSpace=wrap;connectable=0;strokeColor=inherit;overflow=hidden;fillColor=none;top=0;left=0;bottom=0;right=0;pointerEvents=1;fontSize=12;" vertex="1" parent="_QdN2ZTpumICd109jLUp-168">
          <mxGeometry x="151" width="69" height="40" as="geometry">
            <mxRectangle width="69" height="40" as="alternateBounds" />
          </mxGeometry>
        </mxCell>
        <mxCell id="_QdN2ZTpumICd109jLUp-172" value="" style="shape=tableRow;horizontal=0;startSize=0;swimlaneHead=0;swimlaneBody=0;strokeColor=inherit;top=0;left=0;bottom=0;right=0;collapsible=0;dropTarget=0;fillColor=none;points=[[0,0.5],[1,0.5]];portConstraint=eastwest;fontSize=16;" vertex="1" parent="_QdN2ZTpumICd109jLUp-167">
          <mxGeometry y="70" width="220" height="50" as="geometry" />
        </mxCell>
        <mxCell id="_QdN2ZTpumICd109jLUp-173" value="UUID" style="shape=partialRectangle;html=1;whiteSpace=wrap;connectable=0;strokeColor=inherit;overflow=hidden;fillColor=none;top=0;left=0;bottom=0;right=0;pointerEvents=1;fontSize=12;" vertex="1" parent="_QdN2ZTpumICd109jLUp-172">
          <mxGeometry width="69" height="50" as="geometry">
            <mxRectangle width="69" height="50" as="alternateBounds" />
          </mxGeometry>
        </mxCell>
        <mxCell id="_QdN2ZTpumICd109jLUp-174" value="cart_id" style="shape=partialRectangle;html=1;whiteSpace=wrap;connectable=0;strokeColor=inherit;overflow=hidden;fillColor=none;top=0;left=0;bottom=0;right=0;pointerEvents=1;fontSize=12;" vertex="1" parent="_QdN2ZTpumICd109jLUp-172">
          <mxGeometry x="69" width="82" height="50" as="geometry">
            <mxRectangle width="82" height="50" as="alternateBounds" />
          </mxGeometry>
        </mxCell>
        <mxCell id="_QdN2ZTpumICd109jLUp-175" value="FK" style="shape=partialRectangle;html=1;whiteSpace=wrap;connectable=0;strokeColor=inherit;overflow=hidden;fillColor=none;top=0;left=0;bottom=0;right=0;pointerEvents=1;fontSize=12;" vertex="1" parent="_QdN2ZTpumICd109jLUp-172">
          <mxGeometry x="151" width="69" height="50" as="geometry">
            <mxRectangle width="69" height="50" as="alternateBounds" />
          </mxGeometry>
        </mxCell>
        <mxCell id="_QdN2ZTpumICd109jLUp-176" value="" style="shape=tableRow;horizontal=0;startSize=0;swimlaneHead=0;swimlaneBody=0;strokeColor=inherit;top=0;left=0;bottom=0;right=0;collapsible=0;dropTarget=0;fillColor=none;points=[[0,0.5],[1,0.5]];portConstraint=eastwest;fontSize=16;" vertex="1" parent="_QdN2ZTpumICd109jLUp-167">
          <mxGeometry y="120" width="220" height="40" as="geometry" />
        </mxCell>
        <mxCell id="_QdN2ZTpumICd109jLUp-177" value="big int" style="shape=partialRectangle;html=1;whiteSpace=wrap;connectable=0;strokeColor=inherit;overflow=hidden;fillColor=none;top=0;left=0;bottom=0;right=0;pointerEvents=1;fontSize=12;" vertex="1" parent="_QdN2ZTpumICd109jLUp-176">
          <mxGeometry width="69" height="40" as="geometry">
            <mxRectangle width="69" height="40" as="alternateBounds" />
          </mxGeometry>
        </mxCell>
        <mxCell id="_QdN2ZTpumICd109jLUp-178" value="product_id" style="shape=partialRectangle;html=1;whiteSpace=wrap;connectable=0;strokeColor=inherit;overflow=hidden;fillColor=none;top=0;left=0;bottom=0;right=0;pointerEvents=1;fontSize=12;" vertex="1" parent="_QdN2ZTpumICd109jLUp-176">
          <mxGeometry x="69" width="82" height="40" as="geometry">
            <mxRectangle width="82" height="40" as="alternateBounds" />
          </mxGeometry>
        </mxCell>
        <mxCell id="_QdN2ZTpumICd109jLUp-179" value="FK" style="shape=partialRectangle;html=1;whiteSpace=wrap;connectable=0;strokeColor=inherit;overflow=hidden;fillColor=none;top=0;left=0;bottom=0;right=0;pointerEvents=1;fontSize=12;" vertex="1" parent="_QdN2ZTpumICd109jLUp-176">
          <mxGeometry x="151" width="69" height="40" as="geometry">
            <mxRectangle width="69" height="40" as="alternateBounds" />
          </mxGeometry>
        </mxCell>
        <mxCell id="_QdN2ZTpumICd109jLUp-180" style="shape=tableRow;horizontal=0;startSize=0;swimlaneHead=0;swimlaneBody=0;strokeColor=inherit;top=0;left=0;bottom=0;right=0;collapsible=0;dropTarget=0;fillColor=none;points=[[0,0.5],[1,0.5]];portConstraint=eastwest;fontSize=16;" vertex="1" parent="_QdN2ZTpumICd109jLUp-167">
          <mxGeometry y="160" width="220" height="40" as="geometry" />
        </mxCell>
        <mxCell id="_QdN2ZTpumICd109jLUp-181" value="String" style="shape=partialRectangle;html=1;whiteSpace=wrap;connectable=0;strokeColor=inherit;overflow=hidden;fillColor=none;top=0;left=0;bottom=0;right=0;pointerEvents=1;fontSize=12;" vertex="1" parent="_QdN2ZTpumICd109jLUp-180">
          <mxGeometry width="69" height="40" as="geometry">
            <mxRectangle width="69" height="40" as="alternateBounds" />
          </mxGeometry>
        </mxCell>
        <mxCell id="_QdN2ZTpumICd109jLUp-182" value="product_name" style="shape=partialRectangle;html=1;whiteSpace=wrap;connectable=0;strokeColor=inherit;overflow=hidden;fillColor=none;top=0;left=0;bottom=0;right=0;pointerEvents=1;fontSize=12;" vertex="1" parent="_QdN2ZTpumICd109jLUp-180">
          <mxGeometry x="69" width="82" height="40" as="geometry">
            <mxRectangle width="82" height="40" as="alternateBounds" />
          </mxGeometry>
        </mxCell>
        <mxCell id="_QdN2ZTpumICd109jLUp-183" value="FK" style="shape=partialRectangle;html=1;whiteSpace=wrap;connectable=0;strokeColor=inherit;overflow=hidden;fillColor=none;top=0;left=0;bottom=0;right=0;pointerEvents=1;fontSize=12;" vertex="1" parent="_QdN2ZTpumICd109jLUp-180">
          <mxGeometry x="151" width="69" height="40" as="geometry">
            <mxRectangle width="69" height="40" as="alternateBounds" />
          </mxGeometry>
        </mxCell>
        <mxCell id="_QdN2ZTpumICd109jLUp-184" style="shape=tableRow;horizontal=0;startSize=0;swimlaneHead=0;swimlaneBody=0;strokeColor=inherit;top=0;left=0;bottom=0;right=0;collapsible=0;dropTarget=0;fillColor=none;points=[[0,0.5],[1,0.5]];portConstraint=eastwest;fontSize=16;" vertex="1" parent="_QdN2ZTpumICd109jLUp-167">
          <mxGeometry y="200" width="220" height="40" as="geometry" />
        </mxCell>
        <mxCell id="_QdN2ZTpumICd109jLUp-185" value="int" style="shape=partialRectangle;html=1;whiteSpace=wrap;connectable=0;strokeColor=inherit;overflow=hidden;fillColor=none;top=0;left=0;bottom=0;right=0;pointerEvents=1;fontSize=12;" vertex="1" parent="_QdN2ZTpumICd109jLUp-184">
          <mxGeometry width="69" height="40" as="geometry">
            <mxRectangle width="69" height="40" as="alternateBounds" />
          </mxGeometry>
        </mxCell>
        <mxCell id="_QdN2ZTpumICd109jLUp-186" value="quantity" style="shape=partialRectangle;html=1;whiteSpace=wrap;connectable=0;strokeColor=inherit;overflow=hidden;fillColor=none;top=0;left=0;bottom=0;right=0;pointerEvents=1;fontSize=12;" vertex="1" parent="_QdN2ZTpumICd109jLUp-184">
          <mxGeometry x="69" width="82" height="40" as="geometry">
            <mxRectangle width="82" height="40" as="alternateBounds" />
          </mxGeometry>
        </mxCell>
        <mxCell id="_QdN2ZTpumICd109jLUp-187" value="default&lt;br&gt;1" style="shape=partialRectangle;html=1;whiteSpace=wrap;connectable=0;strokeColor=inherit;overflow=hidden;fillColor=none;top=0;left=0;bottom=0;right=0;pointerEvents=1;fontSize=12;" vertex="1" parent="_QdN2ZTpumICd109jLUp-184">
          <mxGeometry x="151" width="69" height="40" as="geometry">
            <mxRectangle width="69" height="40" as="alternateBounds" />
          </mxGeometry>
        </mxCell>
        <mxCell id="_QdN2ZTpumICd109jLUp-188" style="shape=tableRow;horizontal=0;startSize=0;swimlaneHead=0;swimlaneBody=0;strokeColor=inherit;top=0;left=0;bottom=0;right=0;collapsible=0;dropTarget=0;fillColor=none;points=[[0,0.5],[1,0.5]];portConstraint=eastwest;fontSize=16;" vertex="1" parent="_QdN2ZTpumICd109jLUp-167">
          <mxGeometry y="240" width="220" height="40" as="geometry" />
        </mxCell>
        <mxCell id="_QdN2ZTpumICd109jLUp-189" value="decimal" style="shape=partialRectangle;html=1;whiteSpace=wrap;connectable=0;strokeColor=inherit;overflow=hidden;fillColor=none;top=0;left=0;bottom=0;right=0;pointerEvents=1;fontSize=12;" vertex="1" parent="_QdN2ZTpumICd109jLUp-188">
          <mxGeometry width="69" height="40" as="geometry">
            <mxRectangle width="69" height="40" as="alternateBounds" />
          </mxGeometry>
        </mxCell>
        <mxCell id="_QdN2ZTpumICd109jLUp-190" value="price_at" style="shape=partialRectangle;html=1;whiteSpace=wrap;connectable=0;strokeColor=inherit;overflow=hidden;fillColor=none;top=0;left=0;bottom=0;right=0;pointerEvents=1;fontSize=12;" vertex="1" parent="_QdN2ZTpumICd109jLUp-188">
          <mxGeometry x="69" width="82" height="40" as="geometry">
            <mxRectangle width="82" height="40" as="alternateBounds" />
          </mxGeometry>
        </mxCell>
        <mxCell id="_QdN2ZTpumICd109jLUp-191" value="snapshot" style="shape=partialRectangle;html=1;whiteSpace=wrap;connectable=0;strokeColor=inherit;overflow=hidden;fillColor=none;top=0;left=0;bottom=0;right=0;pointerEvents=1;fontSize=12;" vertex="1" parent="_QdN2ZTpumICd109jLUp-188">
          <mxGeometry x="151" width="69" height="40" as="geometry">
            <mxRectangle width="69" height="40" as="alternateBounds" />
          </mxGeometry>
        </mxCell>
        <mxCell id="_QdN2ZTpumICd109jLUp-192" style="shape=tableRow;horizontal=0;startSize=0;swimlaneHead=0;swimlaneBody=0;strokeColor=inherit;top=0;left=0;bottom=0;right=0;collapsible=0;dropTarget=0;fillColor=none;points=[[0,0.5],[1,0.5]];portConstraint=eastwest;fontSize=16;" vertex="1" parent="_QdN2ZTpumICd109jLUp-167">
          <mxGeometry y="280" width="220" height="40" as="geometry" />
        </mxCell>
        <mxCell id="_QdN2ZTpumICd109jLUp-193" value="timestamp" style="shape=partialRectangle;html=1;whiteSpace=wrap;connectable=0;strokeColor=inherit;overflow=hidden;fillColor=none;top=0;left=0;bottom=0;right=0;pointerEvents=1;fontSize=12;" vertex="1" parent="_QdN2ZTpumICd109jLUp-192">
          <mxGeometry width="69" height="40" as="geometry">
            <mxRectangle width="69" height="40" as="alternateBounds" />
          </mxGeometry>
        </mxCell>
        <mxCell id="_QdN2ZTpumICd109jLUp-194" value="added_at" style="shape=partialRectangle;html=1;whiteSpace=wrap;connectable=0;strokeColor=inherit;overflow=hidden;fillColor=none;top=0;left=0;bottom=0;right=0;pointerEvents=1;fontSize=12;" vertex="1" parent="_QdN2ZTpumICd109jLUp-192">
          <mxGeometry x="69" width="82" height="40" as="geometry">
            <mxRectangle width="82" height="40" as="alternateBounds" />
          </mxGeometry>
        </mxCell>
        <mxCell id="_QdN2ZTpumICd109jLUp-195" value="default now()" style="shape=partialRectangle;html=1;whiteSpace=wrap;connectable=0;strokeColor=inherit;overflow=hidden;fillColor=none;top=0;left=0;bottom=0;right=0;pointerEvents=1;fontSize=12;" vertex="1" parent="_QdN2ZTpumICd109jLUp-192">
          <mxGeometry x="151" width="69" height="40" as="geometry">
            <mxRectangle width="69" height="40" as="alternateBounds" />
          </mxGeometry>
        </mxCell>
        <mxCell id="_QdN2ZTpumICd109jLUp-196" value="" style="edgeStyle=entityRelationEdgeStyle;fontSize=12;html=1;endArrow=ERoneToMany;rounded=0;" edge="1" parent="1" source="_QdN2ZTpumICd109jLUp-75" target="_QdN2ZTpumICd109jLUp-176">
          <mxGeometry width="100" height="100" relative="1" as="geometry">
            <mxPoint x="210" y="900" as="sourcePoint" />
            <mxPoint x="310" y="800" as="targetPoint" />
          </mxGeometry>
        </mxCell>
        <mxCell id="_QdN2ZTpumICd109jLUp-197" value="" style="edgeStyle=entityRelationEdgeStyle;fontSize=12;html=1;endArrow=ERzeroToMany;endFill=1;startArrow=ERzeroToMany;rounded=0;exitX=1;exitY=0.5;exitDx=0;exitDy=0;" edge="1" parent="1" source="_QdN2ZTpumICd109jLUp-176" target="_QdN2ZTpumICd109jLUp-139">
          <mxGeometry width="100" height="100" relative="1" as="geometry">
            <mxPoint x="360" y="910" as="sourcePoint" />
            <mxPoint x="460" y="810" as="targetPoint" />
          </mxGeometry>
        </mxCell>
        <mxCell id="_QdN2ZTpumICd109jLUp-198" value="product_category" style="shape=table;startSize=30;container=1;collapsible=0;childLayout=tableLayout;strokeColor=default;fontSize=16;" vertex="1" parent="1">
          <mxGeometry x="870" y="585" width="180" height="150" as="geometry" />
        </mxCell>
        <mxCell id="_QdN2ZTpumICd109jLUp-199" value="" style="shape=tableRow;horizontal=0;startSize=0;swimlaneHead=0;swimlaneBody=0;strokeColor=inherit;top=0;left=0;bottom=0;right=0;collapsible=0;dropTarget=0;fillColor=none;points=[[0,0.5],[1,0.5]];portConstraint=eastwest;fontSize=16;" vertex="1" parent="_QdN2ZTpumICd109jLUp-198">
          <mxGeometry y="30" width="180" height="40" as="geometry" />
        </mxCell>
        <mxCell id="_QdN2ZTpumICd109jLUp-200" value="big int" style="shape=partialRectangle;html=1;whiteSpace=wrap;connectable=0;strokeColor=inherit;overflow=hidden;fillColor=none;top=0;left=0;bottom=0;right=0;pointerEvents=1;fontSize=12;" vertex="1" parent="_QdN2ZTpumICd109jLUp-199">
          <mxGeometry width="60" height="40" as="geometry">
            <mxRectangle width="60" height="40" as="alternateBounds" />
          </mxGeometry>
        </mxCell>
        <mxCell id="_QdN2ZTpumICd109jLUp-201" value="id" style="shape=partialRectangle;html=1;whiteSpace=wrap;connectable=0;strokeColor=inherit;overflow=hidden;fillColor=none;top=0;left=0;bottom=0;right=0;pointerEvents=1;fontSize=12;" vertex="1" parent="_QdN2ZTpumICd109jLUp-199">
          <mxGeometry x="60" width="60" height="40" as="geometry">
            <mxRectangle width="60" height="40" as="alternateBounds" />
          </mxGeometry>
        </mxCell>
        <mxCell id="_QdN2ZTpumICd109jLUp-202" value="PK" style="shape=partialRectangle;html=1;whiteSpace=wrap;connectable=0;strokeColor=inherit;overflow=hidden;fillColor=none;top=0;left=0;bottom=0;right=0;pointerEvents=1;fontSize=12;" vertex="1" parent="_QdN2ZTpumICd109jLUp-199">
          <mxGeometry x="120" width="60" height="40" as="geometry">
            <mxRectangle width="60" height="40" as="alternateBounds" />
          </mxGeometry>
        </mxCell>
        <mxCell id="_QdN2ZTpumICd109jLUp-203" value="" style="shape=tableRow;horizontal=0;startSize=0;swimlaneHead=0;swimlaneBody=0;strokeColor=inherit;top=0;left=0;bottom=0;right=0;collapsible=0;dropTarget=0;fillColor=none;points=[[0,0.5],[1,0.5]];portConstraint=eastwest;fontSize=16;" vertex="1" parent="_QdN2ZTpumICd109jLUp-198">
          <mxGeometry y="70" width="180" height="40" as="geometry" />
        </mxCell>
        <mxCell id="_QdN2ZTpumICd109jLUp-204" value="big int" style="shape=partialRectangle;html=1;whiteSpace=wrap;connectable=0;strokeColor=inherit;overflow=hidden;fillColor=none;top=0;left=0;bottom=0;right=0;pointerEvents=1;fontSize=12;" vertex="1" parent="_QdN2ZTpumICd109jLUp-203">
          <mxGeometry width="60" height="40" as="geometry">
            <mxRectangle width="60" height="40" as="alternateBounds" />
          </mxGeometry>
        </mxCell>
        <mxCell id="_QdN2ZTpumICd109jLUp-205" value="product_id" style="shape=partialRectangle;html=1;whiteSpace=wrap;connectable=0;strokeColor=inherit;overflow=hidden;fillColor=none;top=0;left=0;bottom=0;right=0;pointerEvents=1;fontSize=12;" vertex="1" parent="_QdN2ZTpumICd109jLUp-203">
          <mxGeometry x="60" width="60" height="40" as="geometry">
            <mxRectangle width="60" height="40" as="alternateBounds" />
          </mxGeometry>
        </mxCell>
        <mxCell id="_QdN2ZTpumICd109jLUp-206" value="FK" style="shape=partialRectangle;html=1;whiteSpace=wrap;connectable=0;strokeColor=inherit;overflow=hidden;fillColor=none;top=0;left=0;bottom=0;right=0;pointerEvents=1;fontSize=12;" vertex="1" parent="_QdN2ZTpumICd109jLUp-203">
          <mxGeometry x="120" width="60" height="40" as="geometry">
            <mxRectangle width="60" height="40" as="alternateBounds" />
          </mxGeometry>
        </mxCell>
        <mxCell id="_QdN2ZTpumICd109jLUp-207" value="" style="shape=tableRow;horizontal=0;startSize=0;swimlaneHead=0;swimlaneBody=0;strokeColor=inherit;top=0;left=0;bottom=0;right=0;collapsible=0;dropTarget=0;fillColor=none;points=[[0,0.5],[1,0.5]];portConstraint=eastwest;fontSize=16;" vertex="1" parent="_QdN2ZTpumICd109jLUp-198">
          <mxGeometry y="110" width="180" height="40" as="geometry" />
        </mxCell>
        <mxCell id="_QdN2ZTpumICd109jLUp-208" value="big int" style="shape=partialRectangle;html=1;whiteSpace=wrap;connectable=0;strokeColor=inherit;overflow=hidden;fillColor=none;top=0;left=0;bottom=0;right=0;pointerEvents=1;fontSize=12;" vertex="1" parent="_QdN2ZTpumICd109jLUp-207">
          <mxGeometry width="60" height="40" as="geometry">
            <mxRectangle width="60" height="40" as="alternateBounds" />
          </mxGeometry>
        </mxCell>
        <mxCell id="_QdN2ZTpumICd109jLUp-209" value="category_id" style="shape=partialRectangle;html=1;whiteSpace=wrap;connectable=0;strokeColor=inherit;overflow=hidden;fillColor=none;top=0;left=0;bottom=0;right=0;pointerEvents=1;fontSize=12;" vertex="1" parent="_QdN2ZTpumICd109jLUp-207">
          <mxGeometry x="60" width="60" height="40" as="geometry">
            <mxRectangle width="60" height="40" as="alternateBounds" />
          </mxGeometry>
        </mxCell>
        <mxCell id="_QdN2ZTpumICd109jLUp-210" value="FK" style="shape=partialRectangle;html=1;whiteSpace=wrap;connectable=0;strokeColor=inherit;overflow=hidden;fillColor=none;top=0;left=0;bottom=0;right=0;pointerEvents=1;fontSize=12;" vertex="1" parent="_QdN2ZTpumICd109jLUp-207">
          <mxGeometry x="120" width="60" height="40" as="geometry">
            <mxRectangle width="60" height="40" as="alternateBounds" />
          </mxGeometry>
        </mxCell>
        <mxCell id="_QdN2ZTpumICd109jLUp-211" value="" style="edgeStyle=entityRelationEdgeStyle;fontSize=12;html=1;endArrow=ERzeroToMany;startArrow=ERmandOne;rounded=0;" edge="1" parent="1" source="_QdN2ZTpumICd109jLUp-139" target="_QdN2ZTpumICd109jLUp-203">
          <mxGeometry width="100" height="100" relative="1" as="geometry">
            <mxPoint x="800" y="740" as="sourcePoint" />
            <mxPoint x="900" y="640" as="targetPoint" />
          </mxGeometry>
        </mxCell>
        <mxCell id="_QdN2ZTpumICd109jLUp-212" value="category" style="shape=table;startSize=30;container=1;collapsible=0;childLayout=tableLayout;strokeColor=default;fontSize=16;" vertex="1" parent="1">
          <mxGeometry x="870" y="300" width="180" height="150" as="geometry" />
        </mxCell>
        <mxCell id="_QdN2ZTpumICd109jLUp-213" value="" style="shape=tableRow;horizontal=0;startSize=0;swimlaneHead=0;swimlaneBody=0;strokeColor=inherit;top=0;left=0;bottom=0;right=0;collapsible=0;dropTarget=0;fillColor=none;points=[[0,0.5],[1,0.5]];portConstraint=eastwest;fontSize=16;" vertex="1" parent="_QdN2ZTpumICd109jLUp-212">
          <mxGeometry y="30" width="180" height="40" as="geometry" />
        </mxCell>
        <mxCell id="_QdN2ZTpumICd109jLUp-214" value="big int" style="shape=partialRectangle;html=1;whiteSpace=wrap;connectable=0;strokeColor=inherit;overflow=hidden;fillColor=none;top=0;left=0;bottom=0;right=0;pointerEvents=1;fontSize=11;" vertex="1" parent="_QdN2ZTpumICd109jLUp-213">
          <mxGeometry width="60" height="40" as="geometry">
            <mxRectangle width="60" height="40" as="alternateBounds" />
          </mxGeometry>
        </mxCell>
        <mxCell id="_QdN2ZTpumICd109jLUp-215" value="id" style="shape=partialRectangle;html=1;whiteSpace=wrap;connectable=0;strokeColor=inherit;overflow=hidden;fillColor=none;top=0;left=0;bottom=0;right=0;pointerEvents=1;fontSize=11;" vertex="1" parent="_QdN2ZTpumICd109jLUp-213">
          <mxGeometry x="60" width="60" height="40" as="geometry">
            <mxRectangle width="60" height="40" as="alternateBounds" />
          </mxGeometry>
        </mxCell>
        <mxCell id="_QdN2ZTpumICd109jLUp-216" value="PK" style="shape=partialRectangle;html=1;whiteSpace=wrap;connectable=0;strokeColor=inherit;overflow=hidden;fillColor=none;top=0;left=0;bottom=0;right=0;pointerEvents=1;fontSize=11;" vertex="1" parent="_QdN2ZTpumICd109jLUp-213">
          <mxGeometry x="120" width="60" height="40" as="geometry">
            <mxRectangle width="60" height="40" as="alternateBounds" />
          </mxGeometry>
        </mxCell>
        <mxCell id="_QdN2ZTpumICd109jLUp-217" value="" style="shape=tableRow;horizontal=0;startSize=0;swimlaneHead=0;swimlaneBody=0;strokeColor=inherit;top=0;left=0;bottom=0;right=0;collapsible=0;dropTarget=0;fillColor=none;points=[[0,0.5],[1,0.5]];portConstraint=eastwest;fontSize=16;" vertex="1" parent="_QdN2ZTpumICd109jLUp-212">
          <mxGeometry y="70" width="180" height="40" as="geometry" />
        </mxCell>
        <mxCell id="_QdN2ZTpumICd109jLUp-218" value="String" style="shape=partialRectangle;html=1;whiteSpace=wrap;connectable=0;strokeColor=inherit;overflow=hidden;fillColor=none;top=0;left=0;bottom=0;right=0;pointerEvents=1;fontSize=11;" vertex="1" parent="_QdN2ZTpumICd109jLUp-217">
          <mxGeometry width="60" height="40" as="geometry">
            <mxRectangle width="60" height="40" as="alternateBounds" />
          </mxGeometry>
        </mxCell>
        <mxCell id="_QdN2ZTpumICd109jLUp-219" value="name" style="shape=partialRectangle;html=1;whiteSpace=wrap;connectable=0;strokeColor=inherit;overflow=hidden;fillColor=none;top=0;left=0;bottom=0;right=0;pointerEvents=1;fontSize=11;" vertex="1" parent="_QdN2ZTpumICd109jLUp-217">
          <mxGeometry x="60" width="60" height="40" as="geometry">
            <mxRectangle width="60" height="40" as="alternateBounds" />
          </mxGeometry>
        </mxCell>
        <mxCell id="_QdN2ZTpumICd109jLUp-220" value="Not Null" style="shape=partialRectangle;html=1;whiteSpace=wrap;connectable=0;strokeColor=inherit;overflow=hidden;fillColor=none;top=0;left=0;bottom=0;right=0;pointerEvents=1;fontSize=11;" vertex="1" parent="_QdN2ZTpumICd109jLUp-217">
          <mxGeometry x="120" width="60" height="40" as="geometry">
            <mxRectangle width="60" height="40" as="alternateBounds" />
          </mxGeometry>
        </mxCell>
        <mxCell id="_QdN2ZTpumICd109jLUp-221" value="" style="shape=tableRow;horizontal=0;startSize=0;swimlaneHead=0;swimlaneBody=0;strokeColor=inherit;top=0;left=0;bottom=0;right=0;collapsible=0;dropTarget=0;fillColor=none;points=[[0,0.5],[1,0.5]];portConstraint=eastwest;fontSize=16;" vertex="1" parent="_QdN2ZTpumICd109jLUp-212">
          <mxGeometry y="110" width="180" height="40" as="geometry" />
        </mxCell>
        <mxCell id="_QdN2ZTpumICd109jLUp-222" value="String" style="shape=partialRectangle;html=1;whiteSpace=wrap;connectable=0;strokeColor=inherit;overflow=hidden;fillColor=none;top=0;left=0;bottom=0;right=0;pointerEvents=1;fontSize=11;" vertex="1" parent="_QdN2ZTpumICd109jLUp-221">
          <mxGeometry width="60" height="40" as="geometry">
            <mxRectangle width="60" height="40" as="alternateBounds" />
          </mxGeometry>
        </mxCell>
        <mxCell id="_QdN2ZTpumICd109jLUp-223" value="Description" style="shape=partialRectangle;html=1;whiteSpace=wrap;connectable=0;strokeColor=inherit;overflow=hidden;fillColor=none;top=0;left=0;bottom=0;right=0;pointerEvents=1;fontSize=11;" vertex="1" parent="_QdN2ZTpumICd109jLUp-221">
          <mxGeometry x="60" width="60" height="40" as="geometry">
            <mxRectangle width="60" height="40" as="alternateBounds" />
          </mxGeometry>
        </mxCell>
        <mxCell id="_QdN2ZTpumICd109jLUp-224" value="Not Null" style="shape=partialRectangle;html=1;whiteSpace=wrap;connectable=0;strokeColor=inherit;overflow=hidden;fillColor=none;top=0;left=0;bottom=0;right=0;pointerEvents=1;fontSize=11;" vertex="1" parent="_QdN2ZTpumICd109jLUp-221">
          <mxGeometry x="120" width="60" height="40" as="geometry">
            <mxRectangle width="60" height="40" as="alternateBounds" />
          </mxGeometry>
        </mxCell>
        <mxCell id="_QdN2ZTpumICd109jLUp-225" value="" style="edgeStyle=entityRelationEdgeStyle;fontSize=12;html=1;endArrow=ERzeroToMany;startArrow=ERmandOne;rounded=0;exitX=0.459;exitY=1.065;exitDx=0;exitDy=0;exitPerimeter=0;entryX=0.5;entryY=0;entryDx=0;entryDy=0;" edge="1" parent="1" source="_QdN2ZTpumICd109jLUp-221" target="_QdN2ZTpumICd109jLUp-198">
          <mxGeometry width="100" height="100" relative="1" as="geometry">
            <mxPoint x="1040" y="560" as="sourcePoint" />
            <mxPoint x="1140" y="460" as="targetPoint" />
          </mxGeometry>
        </mxCell>
        <mxCell id="_QdN2ZTpumICd109jLUp-226" value="order" style="shape=table;startSize=30;container=1;collapsible=0;childLayout=tableLayout;strokeColor=default;fontSize=16;" vertex="1" parent="1">
          <mxGeometry x="-40" y="1040" width="270" height="270" as="geometry" />
        </mxCell>
        <mxCell id="_QdN2ZTpumICd109jLUp-227" value="" style="shape=tableRow;horizontal=0;startSize=0;swimlaneHead=0;swimlaneBody=0;strokeColor=inherit;top=0;left=0;bottom=0;right=0;collapsible=0;dropTarget=0;fillColor=none;points=[[0,0.5],[1,0.5]];portConstraint=eastwest;fontSize=16;" vertex="1" parent="_QdN2ZTpumICd109jLUp-226">
          <mxGeometry y="30" width="270" height="40" as="geometry" />
        </mxCell>
        <mxCell id="_QdN2ZTpumICd109jLUp-228" value="UUID" style="shape=partialRectangle;html=1;whiteSpace=wrap;connectable=0;strokeColor=inherit;overflow=hidden;fillColor=none;top=0;left=0;bottom=0;right=0;pointerEvents=1;fontSize=12;" vertex="1" parent="_QdN2ZTpumICd109jLUp-227">
          <mxGeometry width="60" height="40" as="geometry">
            <mxRectangle width="60" height="40" as="alternateBounds" />
          </mxGeometry>
        </mxCell>
        <mxCell id="_QdN2ZTpumICd109jLUp-229" value="order_id" style="shape=partialRectangle;html=1;whiteSpace=wrap;connectable=0;strokeColor=inherit;overflow=hidden;fillColor=none;top=0;left=0;bottom=0;right=0;pointerEvents=1;fontSize=12;" vertex="1" parent="_QdN2ZTpumICd109jLUp-227">
          <mxGeometry x="60" width="116" height="40" as="geometry">
            <mxRectangle width="116" height="40" as="alternateBounds" />
          </mxGeometry>
        </mxCell>
        <mxCell id="_QdN2ZTpumICd109jLUp-230" value="PK" style="shape=partialRectangle;html=1;whiteSpace=wrap;connectable=0;strokeColor=inherit;overflow=hidden;fillColor=none;top=0;left=0;bottom=0;right=0;pointerEvents=1;fontSize=12;" vertex="1" parent="_QdN2ZTpumICd109jLUp-227">
          <mxGeometry x="176" width="94" height="40" as="geometry">
            <mxRectangle width="94" height="40" as="alternateBounds" />
          </mxGeometry>
        </mxCell>
        <mxCell id="_QdN2ZTpumICd109jLUp-231" value="" style="shape=tableRow;horizontal=0;startSize=0;swimlaneHead=0;swimlaneBody=0;strokeColor=inherit;top=0;left=0;bottom=0;right=0;collapsible=0;dropTarget=0;fillColor=none;points=[[0,0.5],[1,0.5]];portConstraint=eastwest;fontSize=16;" vertex="1" parent="_QdN2ZTpumICd109jLUp-226">
          <mxGeometry y="70" width="270" height="48" as="geometry" />
        </mxCell>
        <mxCell id="_QdN2ZTpumICd109jLUp-232" value="UUID" style="shape=partialRectangle;html=1;whiteSpace=wrap;connectable=0;strokeColor=inherit;overflow=hidden;fillColor=none;top=0;left=0;bottom=0;right=0;pointerEvents=1;fontSize=12;" vertex="1" parent="_QdN2ZTpumICd109jLUp-231">
          <mxGeometry width="60" height="48" as="geometry">
            <mxRectangle width="60" height="48" as="alternateBounds" />
          </mxGeometry>
        </mxCell>
        <mxCell id="_QdN2ZTpumICd109jLUp-233" value="customer_id" style="shape=partialRectangle;html=1;whiteSpace=wrap;connectable=0;strokeColor=inherit;overflow=hidden;fillColor=none;top=0;left=0;bottom=0;right=0;pointerEvents=1;fontSize=12;" vertex="1" parent="_QdN2ZTpumICd109jLUp-231">
          <mxGeometry x="60" width="116" height="48" as="geometry">
            <mxRectangle width="116" height="48" as="alternateBounds" />
          </mxGeometry>
        </mxCell>
        <mxCell id="_QdN2ZTpumICd109jLUp-234" value="FK" style="shape=partialRectangle;html=1;whiteSpace=wrap;connectable=0;strokeColor=inherit;overflow=hidden;fillColor=none;top=0;left=0;bottom=0;right=0;pointerEvents=1;fontSize=12;" vertex="1" parent="_QdN2ZTpumICd109jLUp-231">
          <mxGeometry x="176" width="94" height="48" as="geometry">
            <mxRectangle width="94" height="48" as="alternateBounds" />
          </mxGeometry>
        </mxCell>
        <mxCell id="_QdN2ZTpumICd109jLUp-235" style="shape=tableRow;horizontal=0;startSize=0;swimlaneHead=0;swimlaneBody=0;strokeColor=inherit;top=0;left=0;bottom=0;right=0;collapsible=0;dropTarget=0;fillColor=none;points=[[0,0.5],[1,0.5]];portConstraint=eastwest;fontSize=16;" vertex="1" parent="_QdN2ZTpumICd109jLUp-226">
          <mxGeometry y="118" width="270" height="48" as="geometry" />
        </mxCell>
        <mxCell id="_QdN2ZTpumICd109jLUp-236" value="decimal" style="shape=partialRectangle;html=1;whiteSpace=wrap;connectable=0;strokeColor=inherit;overflow=hidden;fillColor=none;top=0;left=0;bottom=0;right=0;pointerEvents=1;fontSize=12;" vertex="1" parent="_QdN2ZTpumICd109jLUp-235">
          <mxGeometry width="60" height="48" as="geometry">
            <mxRectangle width="60" height="48" as="alternateBounds" />
          </mxGeometry>
        </mxCell>
        <mxCell id="_QdN2ZTpumICd109jLUp-237" value="total_outstanding" style="shape=partialRectangle;html=1;whiteSpace=wrap;connectable=0;strokeColor=inherit;overflow=hidden;fillColor=none;top=0;left=0;bottom=0;right=0;pointerEvents=1;fontSize=12;" vertex="1" parent="_QdN2ZTpumICd109jLUp-235">
          <mxGeometry x="60" width="116" height="48" as="geometry">
            <mxRectangle width="116" height="48" as="alternateBounds" />
          </mxGeometry>
        </mxCell>
        <mxCell id="_QdN2ZTpumICd109jLUp-238" value="Not Null&lt;br&gt;&amp;gt; 0" style="shape=partialRectangle;html=1;whiteSpace=wrap;connectable=0;strokeColor=inherit;overflow=hidden;fillColor=none;top=0;left=0;bottom=0;right=0;pointerEvents=1;fontSize=12;" vertex="1" parent="_QdN2ZTpumICd109jLUp-235">
          <mxGeometry x="176" width="94" height="48" as="geometry">
            <mxRectangle width="94" height="48" as="alternateBounds" />
          </mxGeometry>
        </mxCell>
        <mxCell id="_QdN2ZTpumICd109jLUp-239" value="" style="shape=tableRow;horizontal=0;startSize=0;swimlaneHead=0;swimlaneBody=0;strokeColor=inherit;top=0;left=0;bottom=0;right=0;collapsible=0;dropTarget=0;fillColor=none;points=[[0,0.5],[1,0.5]];portConstraint=eastwest;fontSize=16;" vertex="1" parent="_QdN2ZTpumICd109jLUp-226">
          <mxGeometry y="166" width="270" height="42" as="geometry" />
        </mxCell>
        <mxCell id="_QdN2ZTpumICd109jLUp-240" value="Timestamp" style="shape=partialRectangle;html=1;whiteSpace=wrap;connectable=0;strokeColor=inherit;overflow=hidden;fillColor=none;top=0;left=0;bottom=0;right=0;pointerEvents=1;fontSize=12;" vertex="1" parent="_QdN2ZTpumICd109jLUp-239">
          <mxGeometry width="60" height="42" as="geometry">
            <mxRectangle width="60" height="42" as="alternateBounds" />
          </mxGeometry>
        </mxCell>
        <mxCell id="_QdN2ZTpumICd109jLUp-241" value="order_created_at" style="shape=partialRectangle;html=1;whiteSpace=wrap;connectable=0;strokeColor=inherit;overflow=hidden;fillColor=none;top=0;left=0;bottom=0;right=0;pointerEvents=1;fontSize=12;" vertex="1" parent="_QdN2ZTpumICd109jLUp-239">
          <mxGeometry x="60" width="116" height="42" as="geometry">
            <mxRectangle width="116" height="42" as="alternateBounds" />
          </mxGeometry>
        </mxCell>
        <mxCell id="_QdN2ZTpumICd109jLUp-242" value="Not Null" style="shape=partialRectangle;html=1;whiteSpace=wrap;connectable=0;strokeColor=inherit;overflow=hidden;fillColor=none;top=0;left=0;bottom=0;right=0;pointerEvents=1;fontSize=12;" vertex="1" parent="_QdN2ZTpumICd109jLUp-239">
          <mxGeometry x="176" width="94" height="42" as="geometry">
            <mxRectangle width="94" height="42" as="alternateBounds" />
          </mxGeometry>
        </mxCell>
        <mxCell id="_QdN2ZTpumICd109jLUp-243" style="shape=tableRow;horizontal=0;startSize=0;swimlaneHead=0;swimlaneBody=0;strokeColor=inherit;top=0;left=0;bottom=0;right=0;collapsible=0;dropTarget=0;fillColor=none;points=[[0,0.5],[1,0.5]];portConstraint=eastwest;fontSize=16;" vertex="1" parent="_QdN2ZTpumICd109jLUp-226">
          <mxGeometry y="208" width="270" height="62" as="geometry" />
        </mxCell>
        <mxCell id="_QdN2ZTpumICd109jLUp-244" value="Timestamp" style="shape=partialRectangle;html=1;whiteSpace=wrap;connectable=0;strokeColor=inherit;overflow=hidden;fillColor=none;top=0;left=0;bottom=0;right=0;pointerEvents=1;fontSize=12;" vertex="1" parent="_QdN2ZTpumICd109jLUp-243">
          <mxGeometry width="60" height="62" as="geometry">
            <mxRectangle width="60" height="62" as="alternateBounds" />
          </mxGeometry>
        </mxCell>
        <mxCell id="_QdN2ZTpumICd109jLUp-245" value="order_completed_at" style="shape=partialRectangle;html=1;whiteSpace=wrap;connectable=0;strokeColor=inherit;overflow=hidden;fillColor=none;top=0;left=0;bottom=0;right=0;pointerEvents=1;fontSize=12;" vertex="1" parent="_QdN2ZTpumICd109jLUp-243">
          <mxGeometry x="60" width="116" height="62" as="geometry">
            <mxRectangle width="116" height="62" as="alternateBounds" />
          </mxGeometry>
        </mxCell>
        <mxCell id="_QdN2ZTpumICd109jLUp-246" value="Updates&lt;br&gt;On&lt;br&gt;Success/Failure" style="shape=partialRectangle;html=1;whiteSpace=wrap;connectable=0;strokeColor=inherit;overflow=hidden;fillColor=none;top=0;left=0;bottom=0;right=0;pointerEvents=1;fontSize=12;" vertex="1" parent="_QdN2ZTpumICd109jLUp-243">
          <mxGeometry x="176" width="94" height="62" as="geometry">
            <mxRectangle width="94" height="62" as="alternateBounds" />
          </mxGeometry>
        </mxCell>
        <mxCell id="_QdN2ZTpumICd109jLUp-247" value="order_item" style="shape=table;startSize=30;container=1;collapsible=0;childLayout=tableLayout;strokeColor=default;fontSize=16;" vertex="1" parent="1">
          <mxGeometry x="324" y="1030" width="243" height="310" as="geometry" />
        </mxCell>
        <mxCell id="_QdN2ZTpumICd109jLUp-248" value="" style="shape=tableRow;horizontal=0;startSize=0;swimlaneHead=0;swimlaneBody=0;strokeColor=inherit;top=0;left=0;bottom=0;right=0;collapsible=0;dropTarget=0;fillColor=none;points=[[0,0.5],[1,0.5]];portConstraint=eastwest;fontSize=16;" vertex="1" parent="_QdN2ZTpumICd109jLUp-247">
          <mxGeometry y="30" width="243" height="40" as="geometry" />
        </mxCell>
        <mxCell id="_QdN2ZTpumICd109jLUp-249" value="big int" style="shape=partialRectangle;html=1;whiteSpace=wrap;connectable=0;strokeColor=inherit;overflow=hidden;fillColor=none;top=0;left=0;bottom=0;right=0;pointerEvents=1;fontSize=12;" vertex="1" parent="_QdN2ZTpumICd109jLUp-248">
          <mxGeometry width="60" height="40" as="geometry">
            <mxRectangle width="60" height="40" as="alternateBounds" />
          </mxGeometry>
        </mxCell>
        <mxCell id="_QdN2ZTpumICd109jLUp-250" value="order_item_id" style="shape=partialRectangle;html=1;whiteSpace=wrap;connectable=0;strokeColor=inherit;overflow=hidden;fillColor=none;top=0;left=0;bottom=0;right=0;pointerEvents=1;fontSize=12;" vertex="1" parent="_QdN2ZTpumICd109jLUp-248">
          <mxGeometry x="60" width="123" height="40" as="geometry">
            <mxRectangle width="123" height="40" as="alternateBounds" />
          </mxGeometry>
        </mxCell>
        <mxCell id="_QdN2ZTpumICd109jLUp-251" value="PK" style="shape=partialRectangle;html=1;whiteSpace=wrap;connectable=0;strokeColor=inherit;overflow=hidden;fillColor=none;top=0;left=0;bottom=0;right=0;pointerEvents=1;fontSize=12;" vertex="1" parent="_QdN2ZTpumICd109jLUp-248">
          <mxGeometry x="183" width="60" height="40" as="geometry">
            <mxRectangle width="60" height="40" as="alternateBounds" />
          </mxGeometry>
        </mxCell>
        <mxCell id="_QdN2ZTpumICd109jLUp-252" value="" style="shape=tableRow;horizontal=0;startSize=0;swimlaneHead=0;swimlaneBody=0;strokeColor=inherit;top=0;left=0;bottom=0;right=0;collapsible=0;dropTarget=0;fillColor=none;points=[[0,0.5],[1,0.5]];portConstraint=eastwest;fontSize=16;" vertex="1" parent="_QdN2ZTpumICd109jLUp-247">
          <mxGeometry y="70" width="243" height="40" as="geometry" />
        </mxCell>
        <mxCell id="_QdN2ZTpumICd109jLUp-253" value="UUID" style="shape=partialRectangle;html=1;whiteSpace=wrap;connectable=0;strokeColor=inherit;overflow=hidden;fillColor=none;top=0;left=0;bottom=0;right=0;pointerEvents=1;fontSize=12;" vertex="1" parent="_QdN2ZTpumICd109jLUp-252">
          <mxGeometry width="60" height="40" as="geometry">
            <mxRectangle width="60" height="40" as="alternateBounds" />
          </mxGeometry>
        </mxCell>
        <mxCell id="_QdN2ZTpumICd109jLUp-254" value="order_id" style="shape=partialRectangle;html=1;whiteSpace=wrap;connectable=0;strokeColor=inherit;overflow=hidden;fillColor=none;top=0;left=0;bottom=0;right=0;pointerEvents=1;fontSize=12;" vertex="1" parent="_QdN2ZTpumICd109jLUp-252">
          <mxGeometry x="60" width="123" height="40" as="geometry">
            <mxRectangle width="123" height="40" as="alternateBounds" />
          </mxGeometry>
        </mxCell>
        <mxCell id="_QdN2ZTpumICd109jLUp-255" value="FK" style="shape=partialRectangle;html=1;whiteSpace=wrap;connectable=0;strokeColor=inherit;overflow=hidden;fillColor=none;top=0;left=0;bottom=0;right=0;pointerEvents=1;fontSize=12;" vertex="1" parent="_QdN2ZTpumICd109jLUp-252">
          <mxGeometry x="183" width="60" height="40" as="geometry">
            <mxRectangle width="60" height="40" as="alternateBounds" />
          </mxGeometry>
        </mxCell>
        <mxCell id="_QdN2ZTpumICd109jLUp-256" style="shape=tableRow;horizontal=0;startSize=0;swimlaneHead=0;swimlaneBody=0;strokeColor=inherit;top=0;left=0;bottom=0;right=0;collapsible=0;dropTarget=0;fillColor=none;points=[[0,0.5],[1,0.5]];portConstraint=eastwest;fontSize=16;" vertex="1" parent="_QdN2ZTpumICd109jLUp-247">
          <mxGeometry y="110" width="243" height="40" as="geometry" />
        </mxCell>
        <mxCell id="_QdN2ZTpumICd109jLUp-257" value="big int" style="shape=partialRectangle;html=1;whiteSpace=wrap;connectable=0;strokeColor=inherit;overflow=hidden;fillColor=none;top=0;left=0;bottom=0;right=0;pointerEvents=1;fontSize=12;" vertex="1" parent="_QdN2ZTpumICd109jLUp-256">
          <mxGeometry width="60" height="40" as="geometry">
            <mxRectangle width="60" height="40" as="alternateBounds" />
          </mxGeometry>
        </mxCell>
        <mxCell id="_QdN2ZTpumICd109jLUp-258" value="product_id" style="shape=partialRectangle;html=1;whiteSpace=wrap;connectable=0;strokeColor=inherit;overflow=hidden;fillColor=none;top=0;left=0;bottom=0;right=0;pointerEvents=1;fontSize=12;" vertex="1" parent="_QdN2ZTpumICd109jLUp-256">
          <mxGeometry x="60" width="123" height="40" as="geometry">
            <mxRectangle width="123" height="40" as="alternateBounds" />
          </mxGeometry>
        </mxCell>
        <mxCell id="_QdN2ZTpumICd109jLUp-259" value="FK" style="shape=partialRectangle;html=1;whiteSpace=wrap;connectable=0;strokeColor=inherit;overflow=hidden;fillColor=none;top=0;left=0;bottom=0;right=0;pointerEvents=1;fontSize=12;" vertex="1" parent="_QdN2ZTpumICd109jLUp-256">
          <mxGeometry x="183" width="60" height="40" as="geometry">
            <mxRectangle width="60" height="40" as="alternateBounds" />
          </mxGeometry>
        </mxCell>
        <mxCell id="_QdN2ZTpumICd109jLUp-260" style="shape=tableRow;horizontal=0;startSize=0;swimlaneHead=0;swimlaneBody=0;strokeColor=inherit;top=0;left=0;bottom=0;right=0;collapsible=0;dropTarget=0;fillColor=none;points=[[0,0.5],[1,0.5]];portConstraint=eastwest;fontSize=16;" vertex="1" parent="_QdN2ZTpumICd109jLUp-247">
          <mxGeometry y="150" width="243" height="40" as="geometry" />
        </mxCell>
        <mxCell id="_QdN2ZTpumICd109jLUp-261" value="String" style="shape=partialRectangle;html=1;whiteSpace=wrap;connectable=0;strokeColor=inherit;overflow=hidden;fillColor=none;top=0;left=0;bottom=0;right=0;pointerEvents=1;fontSize=12;" vertex="1" parent="_QdN2ZTpumICd109jLUp-260">
          <mxGeometry width="60" height="40" as="geometry">
            <mxRectangle width="60" height="40" as="alternateBounds" />
          </mxGeometry>
        </mxCell>
        <mxCell id="_QdN2ZTpumICd109jLUp-262" value="product_name" style="shape=partialRectangle;html=1;whiteSpace=wrap;connectable=0;strokeColor=inherit;overflow=hidden;fillColor=none;top=0;left=0;bottom=0;right=0;pointerEvents=1;fontSize=12;" vertex="1" parent="_QdN2ZTpumICd109jLUp-260">
          <mxGeometry x="60" width="123" height="40" as="geometry">
            <mxRectangle width="123" height="40" as="alternateBounds" />
          </mxGeometry>
        </mxCell>
        <mxCell id="_QdN2ZTpumICd109jLUp-263" value="Not Null" style="shape=partialRectangle;html=1;whiteSpace=wrap;connectable=0;strokeColor=inherit;overflow=hidden;fillColor=none;top=0;left=0;bottom=0;right=0;pointerEvents=1;fontSize=12;" vertex="1" parent="_QdN2ZTpumICd109jLUp-260">
          <mxGeometry x="183" width="60" height="40" as="geometry">
            <mxRectangle width="60" height="40" as="alternateBounds" />
          </mxGeometry>
        </mxCell>
        <mxCell id="_QdN2ZTpumICd109jLUp-264" style="shape=tableRow;horizontal=0;startSize=0;swimlaneHead=0;swimlaneBody=0;strokeColor=inherit;top=0;left=0;bottom=0;right=0;collapsible=0;dropTarget=0;fillColor=none;points=[[0,0.5],[1,0.5]];portConstraint=eastwest;fontSize=16;" vertex="1" parent="_QdN2ZTpumICd109jLUp-247">
          <mxGeometry y="190" width="243" height="40" as="geometry" />
        </mxCell>
        <mxCell id="_QdN2ZTpumICd109jLUp-265" value="int" style="shape=partialRectangle;html=1;whiteSpace=wrap;connectable=0;strokeColor=inherit;overflow=hidden;fillColor=none;top=0;left=0;bottom=0;right=0;pointerEvents=1;fontSize=12;" vertex="1" parent="_QdN2ZTpumICd109jLUp-264">
          <mxGeometry width="60" height="40" as="geometry">
            <mxRectangle width="60" height="40" as="alternateBounds" />
          </mxGeometry>
        </mxCell>
        <mxCell id="_QdN2ZTpumICd109jLUp-266" value="quantity" style="shape=partialRectangle;html=1;whiteSpace=wrap;connectable=0;strokeColor=inherit;overflow=hidden;fillColor=none;top=0;left=0;bottom=0;right=0;pointerEvents=1;fontSize=12;" vertex="1" parent="_QdN2ZTpumICd109jLUp-264">
          <mxGeometry x="60" width="123" height="40" as="geometry">
            <mxRectangle width="123" height="40" as="alternateBounds" />
          </mxGeometry>
        </mxCell>
        <mxCell id="_QdN2ZTpumICd109jLUp-267" value="default&lt;div&gt;1&lt;/div&gt;" style="shape=partialRectangle;html=1;whiteSpace=wrap;connectable=0;strokeColor=inherit;overflow=hidden;fillColor=none;top=0;left=0;bottom=0;right=0;pointerEvents=1;fontSize=12;" vertex="1" parent="_QdN2ZTpumICd109jLUp-264">
          <mxGeometry x="183" width="60" height="40" as="geometry">
            <mxRectangle width="60" height="40" as="alternateBounds" />
          </mxGeometry>
        </mxCell>
        <mxCell id="_QdN2ZTpumICd109jLUp-268" style="shape=tableRow;horizontal=0;startSize=0;swimlaneHead=0;swimlaneBody=0;strokeColor=inherit;top=0;left=0;bottom=0;right=0;collapsible=0;dropTarget=0;fillColor=none;points=[[0,0.5],[1,0.5]];portConstraint=eastwest;fontSize=16;" vertex="1" parent="_QdN2ZTpumICd109jLUp-247">
          <mxGeometry y="230" width="243" height="40" as="geometry" />
        </mxCell>
        <mxCell id="_QdN2ZTpumICd109jLUp-269" value="decimal" style="shape=partialRectangle;html=1;whiteSpace=wrap;connectable=0;strokeColor=inherit;overflow=hidden;fillColor=none;top=0;left=0;bottom=0;right=0;pointerEvents=1;fontSize=12;" vertex="1" parent="_QdN2ZTpumICd109jLUp-268">
          <mxGeometry width="60" height="40" as="geometry">
            <mxRectangle width="60" height="40" as="alternateBounds" />
          </mxGeometry>
        </mxCell>
        <mxCell id="_QdN2ZTpumICd109jLUp-270" value="price_at" style="shape=partialRectangle;html=1;whiteSpace=wrap;connectable=0;strokeColor=inherit;overflow=hidden;fillColor=none;top=0;left=0;bottom=0;right=0;pointerEvents=1;fontSize=12;" vertex="1" parent="_QdN2ZTpumICd109jLUp-268">
          <mxGeometry x="60" width="123" height="40" as="geometry">
            <mxRectangle width="123" height="40" as="alternateBounds" />
          </mxGeometry>
        </mxCell>
        <mxCell id="_QdN2ZTpumICd109jLUp-271" value="snapshot" style="shape=partialRectangle;html=1;whiteSpace=wrap;connectable=0;strokeColor=inherit;overflow=hidden;fillColor=none;top=0;left=0;bottom=0;right=0;pointerEvents=1;fontSize=12;" vertex="1" parent="_QdN2ZTpumICd109jLUp-268">
          <mxGeometry x="183" width="60" height="40" as="geometry">
            <mxRectangle width="60" height="40" as="alternateBounds" />
          </mxGeometry>
        </mxCell>
        <mxCell id="_QdN2ZTpumICd109jLUp-272" style="shape=tableRow;horizontal=0;startSize=0;swimlaneHead=0;swimlaneBody=0;strokeColor=inherit;top=0;left=0;bottom=0;right=0;collapsible=0;dropTarget=0;fillColor=none;points=[[0,0.5],[1,0.5]];portConstraint=eastwest;fontSize=16;" vertex="1" parent="_QdN2ZTpumICd109jLUp-247">
          <mxGeometry y="270" width="243" height="40" as="geometry" />
        </mxCell>
        <mxCell id="_QdN2ZTpumICd109jLUp-273" value="timestamp" style="shape=partialRectangle;html=1;whiteSpace=wrap;connectable=0;strokeColor=inherit;overflow=hidden;fillColor=none;top=0;left=0;bottom=0;right=0;pointerEvents=1;fontSize=12;" vertex="1" parent="_QdN2ZTpumICd109jLUp-272">
          <mxGeometry width="60" height="40" as="geometry">
            <mxRectangle width="60" height="40" as="alternateBounds" />
          </mxGeometry>
        </mxCell>
        <mxCell id="_QdN2ZTpumICd109jLUp-274" value="snapshot_created_at" style="shape=partialRectangle;html=1;whiteSpace=wrap;connectable=0;strokeColor=inherit;overflow=hidden;fillColor=none;top=0;left=0;bottom=0;right=0;pointerEvents=1;fontSize=12;" vertex="1" parent="_QdN2ZTpumICd109jLUp-272">
          <mxGeometry x="60" width="123" height="40" as="geometry">
            <mxRectangle width="123" height="40" as="alternateBounds" />
          </mxGeometry>
        </mxCell>
        <mxCell id="_QdN2ZTpumICd109jLUp-275" value="default&lt;br&gt;timenow()" style="shape=partialRectangle;html=1;whiteSpace=wrap;connectable=0;strokeColor=inherit;overflow=hidden;fillColor=none;top=0;left=0;bottom=0;right=0;pointerEvents=1;fontSize=12;" vertex="1" parent="_QdN2ZTpumICd109jLUp-272">
          <mxGeometry x="183" width="60" height="40" as="geometry">
            <mxRectangle width="60" height="40" as="alternateBounds" />
          </mxGeometry>
        </mxCell>
        <mxCell id="_QdN2ZTpumICd109jLUp-276" value="" style="endArrow=classic;html=1;rounded=0;entryX=0.5;entryY=0;entryDx=0;entryDy=0;exitX=0.443;exitY=1.004;exitDx=0;exitDy=0;exitPerimeter=0;" edge="1" parent="1" source="_QdN2ZTpumICd109jLUp-79" target="_QdN2ZTpumICd109jLUp-226">
          <mxGeometry width="50" height="50" relative="1" as="geometry">
            <mxPoint x="210" y="980" as="sourcePoint" />
            <mxPoint x="260" y="930" as="targetPoint" />
          </mxGeometry>
        </mxCell>
        <mxCell id="_QdN2ZTpumICd109jLUp-277" value="" style="edgeStyle=entityRelationEdgeStyle;fontSize=12;html=1;endArrow=ERzeroToMany;startArrow=ERmandOne;rounded=0;exitX=1;exitY=0.5;exitDx=0;exitDy=0;entryX=0;entryY=0.5;entryDx=0;entryDy=0;" edge="1" parent="1" source="_QdN2ZTpumICd109jLUp-231" target="_QdN2ZTpumICd109jLUp-252">
          <mxGeometry width="100" height="100" relative="1" as="geometry">
            <mxPoint x="210" y="1140" as="sourcePoint" />
            <mxPoint x="310" y="1040" as="targetPoint" />
          </mxGeometry>
        </mxCell>
        <mxCell id="_QdN2ZTpumICd109jLUp-278" value="When Order is placed at checkout, a snapshot is created and it&#39;s saved in the order table // order_item table // to ensure compliance for the transaction that took place.&lt;br&gt;&lt;br&gt;Prices will be a snapshot of that day, so we can confirm the transaction if there are issues in the future." style="shape=note;size=20;whiteSpace=wrap;html=1;" vertex="1" parent="1">
          <mxGeometry x="-413" y="1050" width="250" height="130" as="geometry" />
        </mxCell>
        <mxCell id="_QdN2ZTpumICd109jLUp-279" value="" style="endArrow=classic;html=1;rounded=0;entryX=0;entryY=0;entryDx=230.00000000000003;entryDy=60;entryPerimeter=0;exitX=-0.001;exitY=0.019;exitDx=0;exitDy=0;exitPerimeter=0;" edge="1" parent="1" source="_QdN2ZTpumICd109jLUp-239" target="_QdN2ZTpumICd109jLUp-278">
          <mxGeometry width="50" height="50" relative="1" as="geometry">
            <mxPoint x="-110" y="1190" as="sourcePoint" />
            <mxPoint x="-60" y="1140" as="targetPoint" />
          </mxGeometry>
        </mxCell>
        <mxCell id="_QdN2ZTpumICd109jLUp-280" value="Cart_Items will be deleted for the particular UUID, once the transaction finalizes and it&#39;s successful.&amp;nbsp;" style="shape=note;size=20;whiteSpace=wrap;html=1;" vertex="1" parent="1">
          <mxGeometry x="620" y="1065" width="230" height="100" as="geometry" />
        </mxCell>
        <mxCell id="_QdN2ZTpumICd109jLUp-281" style="edgeStyle=orthogonalEdgeStyle;rounded=0;orthogonalLoop=1;jettySize=auto;html=1;exitX=1;exitY=0.5;exitDx=0;exitDy=0;entryX=0;entryY=0.5;entryDx=0;entryDy=0;entryPerimeter=0;" edge="1" parent="1" source="_QdN2ZTpumICd109jLUp-252" target="_QdN2ZTpumICd109jLUp-280">
          <mxGeometry relative="1" as="geometry" />
        </mxCell>
        <mxCell id="_QdN2ZTpumICd109jLUp-282" value="transactions" style="shape=table;startSize=30;container=1;collapsible=0;childLayout=tableLayout;strokeColor=default;fontSize=16;" vertex="1" parent="1">
          <mxGeometry x="90" y="1410" width="268" height="354" as="geometry" />
        </mxCell>
        <mxCell id="_QdN2ZTpumICd109jLUp-283" value="" style="shape=tableRow;horizontal=0;startSize=0;swimlaneHead=0;swimlaneBody=0;strokeColor=inherit;top=0;left=0;bottom=0;right=0;collapsible=0;dropTarget=0;fillColor=none;points=[[0,0.5],[1,0.5]];portConstraint=eastwest;fontSize=16;" vertex="1" parent="_QdN2ZTpumICd109jLUp-282">
          <mxGeometry y="30" width="268" height="46" as="geometry" />
        </mxCell>
        <mxCell id="_QdN2ZTpumICd109jLUp-284" value="UUID" style="shape=partialRectangle;html=1;whiteSpace=wrap;connectable=0;strokeColor=inherit;overflow=hidden;fillColor=none;top=0;left=0;bottom=0;right=0;pointerEvents=1;fontSize=12;" vertex="1" parent="_QdN2ZTpumICd109jLUp-283">
          <mxGeometry width="81" height="46" as="geometry">
            <mxRectangle width="81" height="46" as="alternateBounds" />
          </mxGeometry>
        </mxCell>
        <mxCell id="_QdN2ZTpumICd109jLUp-285" value="trans_id" style="shape=partialRectangle;html=1;whiteSpace=wrap;connectable=0;strokeColor=inherit;overflow=hidden;fillColor=none;top=0;left=0;bottom=0;right=0;pointerEvents=1;fontSize=12;" vertex="1" parent="_QdN2ZTpumICd109jLUp-283">
          <mxGeometry x="81" width="106" height="46" as="geometry">
            <mxRectangle width="106" height="46" as="alternateBounds" />
          </mxGeometry>
        </mxCell>
        <mxCell id="_QdN2ZTpumICd109jLUp-286" value="PK" style="shape=partialRectangle;html=1;whiteSpace=wrap;connectable=0;strokeColor=inherit;overflow=hidden;fillColor=none;top=0;left=0;bottom=0;right=0;pointerEvents=1;fontSize=12;" vertex="1" parent="_QdN2ZTpumICd109jLUp-283">
          <mxGeometry x="187" width="81" height="46" as="geometry">
            <mxRectangle width="81" height="46" as="alternateBounds" />
          </mxGeometry>
        </mxCell>
        <mxCell id="_QdN2ZTpumICd109jLUp-287" value="" style="shape=tableRow;horizontal=0;startSize=0;swimlaneHead=0;swimlaneBody=0;strokeColor=inherit;top=0;left=0;bottom=0;right=0;collapsible=0;dropTarget=0;fillColor=none;points=[[0,0.5],[1,0.5]];portConstraint=eastwest;fontSize=16;" vertex="1" parent="_QdN2ZTpumICd109jLUp-282">
          <mxGeometry y="76" width="268" height="48" as="geometry" />
        </mxCell>
        <mxCell id="_QdN2ZTpumICd109jLUp-288" value="UUID" style="shape=partialRectangle;html=1;whiteSpace=wrap;connectable=0;strokeColor=inherit;overflow=hidden;fillColor=none;top=0;left=0;bottom=0;right=0;pointerEvents=1;fontSize=12;" vertex="1" parent="_QdN2ZTpumICd109jLUp-287">
          <mxGeometry width="81" height="48" as="geometry">
            <mxRectangle width="81" height="48" as="alternateBounds" />
          </mxGeometry>
        </mxCell>
        <mxCell id="_QdN2ZTpumICd109jLUp-289" value="order_id" style="shape=partialRectangle;html=1;whiteSpace=wrap;connectable=0;strokeColor=inherit;overflow=hidden;fillColor=none;top=0;left=0;bottom=0;right=0;pointerEvents=1;fontSize=12;" vertex="1" parent="_QdN2ZTpumICd109jLUp-287">
          <mxGeometry x="81" width="106" height="48" as="geometry">
            <mxRectangle width="106" height="48" as="alternateBounds" />
          </mxGeometry>
        </mxCell>
        <mxCell id="_QdN2ZTpumICd109jLUp-290" value="FK" style="shape=partialRectangle;html=1;whiteSpace=wrap;connectable=0;strokeColor=inherit;overflow=hidden;fillColor=none;top=0;left=0;bottom=0;right=0;pointerEvents=1;fontSize=12;" vertex="1" parent="_QdN2ZTpumICd109jLUp-287">
          <mxGeometry x="187" width="81" height="48" as="geometry">
            <mxRectangle width="81" height="48" as="alternateBounds" />
          </mxGeometry>
        </mxCell>
        <mxCell id="_QdN2ZTpumICd109jLUp-291" style="shape=tableRow;horizontal=0;startSize=0;swimlaneHead=0;swimlaneBody=0;strokeColor=inherit;top=0;left=0;bottom=0;right=0;collapsible=0;dropTarget=0;fillColor=none;points=[[0,0.5],[1,0.5]];portConstraint=eastwest;fontSize=16;" vertex="1" parent="_QdN2ZTpumICd109jLUp-282">
          <mxGeometry y="124" width="268" height="48" as="geometry" />
        </mxCell>
        <mxCell id="_QdN2ZTpumICd109jLUp-292" value="String" style="shape=partialRectangle;html=1;whiteSpace=wrap;connectable=0;strokeColor=inherit;overflow=hidden;fillColor=none;top=0;left=0;bottom=0;right=0;pointerEvents=1;fontSize=12;" vertex="1" parent="_QdN2ZTpumICd109jLUp-291">
          <mxGeometry width="81" height="48" as="geometry">
            <mxRectangle width="81" height="48" as="alternateBounds" />
          </mxGeometry>
        </mxCell>
        <mxCell id="_QdN2ZTpumICd109jLUp-293" value="customer_id" style="shape=partialRectangle;html=1;whiteSpace=wrap;connectable=0;strokeColor=inherit;overflow=hidden;fillColor=none;top=0;left=0;bottom=0;right=0;pointerEvents=1;fontSize=12;" vertex="1" parent="_QdN2ZTpumICd109jLUp-291">
          <mxGeometry x="81" width="106" height="48" as="geometry">
            <mxRectangle width="106" height="48" as="alternateBounds" />
          </mxGeometry>
        </mxCell>
        <mxCell id="_QdN2ZTpumICd109jLUp-294" style="shape=partialRectangle;html=1;whiteSpace=wrap;connectable=0;strokeColor=inherit;overflow=hidden;fillColor=none;top=0;left=0;bottom=0;right=0;pointerEvents=1;fontSize=12;" vertex="1" parent="_QdN2ZTpumICd109jLUp-291">
          <mxGeometry x="187" width="81" height="48" as="geometry">
            <mxRectangle width="81" height="48" as="alternateBounds" />
          </mxGeometry>
        </mxCell>
        <mxCell id="_QdN2ZTpumICd109jLUp-295" value="" style="shape=tableRow;horizontal=0;startSize=0;swimlaneHead=0;swimlaneBody=0;strokeColor=inherit;top=0;left=0;bottom=0;right=0;collapsible=0;dropTarget=0;fillColor=none;points=[[0,0.5],[1,0.5]];portConstraint=eastwest;fontSize=16;" vertex="1" parent="_QdN2ZTpumICd109jLUp-282">
          <mxGeometry y="172" width="268" height="46" as="geometry" />
        </mxCell>
        <mxCell id="_QdN2ZTpumICd109jLUp-296" value="JSON" style="shape=partialRectangle;html=1;whiteSpace=wrap;connectable=0;strokeColor=inherit;overflow=hidden;fillColor=none;top=0;left=0;bottom=0;right=0;pointerEvents=1;fontSize=12;" vertex="1" parent="_QdN2ZTpumICd109jLUp-295">
          <mxGeometry width="81" height="46" as="geometry">
            <mxRectangle width="81" height="46" as="alternateBounds" />
          </mxGeometry>
        </mxCell>
        <mxCell id="_QdN2ZTpumICd109jLUp-297" value="payment_method" style="shape=partialRectangle;html=1;whiteSpace=wrap;connectable=0;strokeColor=inherit;overflow=hidden;fillColor=none;top=0;left=0;bottom=0;right=0;pointerEvents=1;fontSize=12;" vertex="1" parent="_QdN2ZTpumICd109jLUp-295">
          <mxGeometry x="81" width="106" height="46" as="geometry">
            <mxRectangle width="106" height="46" as="alternateBounds" />
          </mxGeometry>
        </mxCell>
        <mxCell id="_QdN2ZTpumICd109jLUp-298" value="Not Null" style="shape=partialRectangle;html=1;whiteSpace=wrap;connectable=0;strokeColor=inherit;overflow=hidden;fillColor=none;top=0;left=0;bottom=0;right=0;pointerEvents=1;fontSize=12;" vertex="1" parent="_QdN2ZTpumICd109jLUp-295">
          <mxGeometry x="187" width="81" height="46" as="geometry">
            <mxRectangle width="81" height="46" as="alternateBounds" />
          </mxGeometry>
        </mxCell>
        <mxCell id="_QdN2ZTpumICd109jLUp-299" style="shape=tableRow;horizontal=0;startSize=0;swimlaneHead=0;swimlaneBody=0;strokeColor=inherit;top=0;left=0;bottom=0;right=0;collapsible=0;dropTarget=0;fillColor=none;points=[[0,0.5],[1,0.5]];portConstraint=eastwest;fontSize=16;" vertex="1" parent="_QdN2ZTpumICd109jLUp-282">
          <mxGeometry y="218" width="268" height="46" as="geometry" />
        </mxCell>
        <mxCell id="_QdN2ZTpumICd109jLUp-300" value="decimal" style="shape=partialRectangle;html=1;whiteSpace=wrap;connectable=0;strokeColor=inherit;overflow=hidden;fillColor=none;top=0;left=0;bottom=0;right=0;pointerEvents=1;fontSize=12;" vertex="1" parent="_QdN2ZTpumICd109jLUp-299">
          <mxGeometry width="81" height="46" as="geometry">
            <mxRectangle width="81" height="46" as="alternateBounds" />
          </mxGeometry>
        </mxCell>
        <mxCell id="_QdN2ZTpumICd109jLUp-301" value="total_outstanding" style="shape=partialRectangle;html=1;whiteSpace=wrap;connectable=0;strokeColor=inherit;overflow=hidden;fillColor=none;top=0;left=0;bottom=0;right=0;pointerEvents=1;fontSize=12;" vertex="1" parent="_QdN2ZTpumICd109jLUp-299">
          <mxGeometry x="81" width="106" height="46" as="geometry">
            <mxRectangle width="106" height="46" as="alternateBounds" />
          </mxGeometry>
        </mxCell>
        <mxCell id="_QdN2ZTpumICd109jLUp-302" value="Not Null&lt;br&gt;&amp;gt;0" style="shape=partialRectangle;html=1;whiteSpace=wrap;connectable=0;strokeColor=inherit;overflow=hidden;fillColor=none;top=0;left=0;bottom=0;right=0;pointerEvents=1;fontSize=12;" vertex="1" parent="_QdN2ZTpumICd109jLUp-299">
          <mxGeometry x="187" width="81" height="46" as="geometry">
            <mxRectangle width="81" height="46" as="alternateBounds" />
          </mxGeometry>
        </mxCell>
        <mxCell id="_QdN2ZTpumICd109jLUp-303" style="shape=tableRow;horizontal=0;startSize=0;swimlaneHead=0;swimlaneBody=0;strokeColor=inherit;top=0;left=0;bottom=0;right=0;collapsible=0;dropTarget=0;fillColor=none;points=[[0,0.5],[1,0.5]];portConstraint=eastwest;fontSize=16;" vertex="1" parent="_QdN2ZTpumICd109jLUp-282">
          <mxGeometry y="264" width="268" height="44" as="geometry" />
        </mxCell>
        <mxCell id="_QdN2ZTpumICd109jLUp-304" value="timestamp" style="shape=partialRectangle;html=1;whiteSpace=wrap;connectable=0;strokeColor=inherit;overflow=hidden;fillColor=none;top=0;left=0;bottom=0;right=0;pointerEvents=1;fontSize=12;" vertex="1" parent="_QdN2ZTpumICd109jLUp-303">
          <mxGeometry width="81" height="44" as="geometry">
            <mxRectangle width="81" height="44" as="alternateBounds" />
          </mxGeometry>
        </mxCell>
        <mxCell id="_QdN2ZTpumICd109jLUp-305" value="submitted_at" style="shape=partialRectangle;html=1;whiteSpace=wrap;connectable=0;strokeColor=inherit;overflow=hidden;fillColor=none;top=0;left=0;bottom=0;right=0;pointerEvents=1;fontSize=12;" vertex="1" parent="_QdN2ZTpumICd109jLUp-303">
          <mxGeometry x="81" width="106" height="44" as="geometry">
            <mxRectangle width="106" height="44" as="alternateBounds" />
          </mxGeometry>
        </mxCell>
        <mxCell id="_QdN2ZTpumICd109jLUp-306" value="default&lt;br&gt;now()" style="shape=partialRectangle;html=1;whiteSpace=wrap;connectable=0;strokeColor=inherit;overflow=hidden;fillColor=none;top=0;left=0;bottom=0;right=0;pointerEvents=1;fontSize=12;" vertex="1" parent="_QdN2ZTpumICd109jLUp-303">
          <mxGeometry x="187" width="81" height="44" as="geometry">
            <mxRectangle width="81" height="44" as="alternateBounds" />
          </mxGeometry>
        </mxCell>
        <mxCell id="_QdN2ZTpumICd109jLUp-307" style="shape=tableRow;horizontal=0;startSize=0;swimlaneHead=0;swimlaneBody=0;strokeColor=inherit;top=0;left=0;bottom=0;right=0;collapsible=0;dropTarget=0;fillColor=none;points=[[0,0.5],[1,0.5]];portConstraint=eastwest;fontSize=16;" vertex="1" parent="_QdN2ZTpumICd109jLUp-282">
          <mxGeometry y="308" width="268" height="46" as="geometry" />
        </mxCell>
        <mxCell id="_QdN2ZTpumICd109jLUp-308" value="timestamp" style="shape=partialRectangle;html=1;whiteSpace=wrap;connectable=0;strokeColor=inherit;overflow=hidden;fillColor=none;top=0;left=0;bottom=0;right=0;pointerEvents=1;fontSize=12;" vertex="1" parent="_QdN2ZTpumICd109jLUp-307">
          <mxGeometry width="81" height="46" as="geometry">
            <mxRectangle width="81" height="46" as="alternateBounds" />
          </mxGeometry>
        </mxCell>
        <mxCell id="_QdN2ZTpumICd109jLUp-309" value="completed_at" style="shape=partialRectangle;html=1;whiteSpace=wrap;connectable=0;strokeColor=inherit;overflow=hidden;fillColor=none;top=0;left=0;bottom=0;right=0;pointerEvents=1;fontSize=12;" vertex="1" parent="_QdN2ZTpumICd109jLUp-307">
          <mxGeometry x="81" width="106" height="46" as="geometry">
            <mxRectangle width="106" height="46" as="alternateBounds" />
          </mxGeometry>
        </mxCell>
        <mxCell id="_QdN2ZTpumICd109jLUp-310" value="Not Null" style="shape=partialRectangle;html=1;whiteSpace=wrap;connectable=0;strokeColor=inherit;overflow=hidden;fillColor=none;top=0;left=0;bottom=0;right=0;pointerEvents=1;fontSize=12;" vertex="1" parent="_QdN2ZTpumICd109jLUp-307">
          <mxGeometry x="187" width="81" height="46" as="geometry">
            <mxRectangle width="81" height="46" as="alternateBounds" />
          </mxGeometry>
        </mxCell>
        <mxCell id="_QdN2ZTpumICd109jLUp-311" value="" style="endArrow=classic;html=1;rounded=0;exitX=0.963;exitY=0.013;exitDx=0;exitDy=0;exitPerimeter=0;" edge="1" parent="1" source="_QdN2ZTpumICd109jLUp-287" target="_QdN2ZTpumICd109jLUp-313">
          <mxGeometry relative="1" as="geometry">
            <mxPoint x="390" y="1480" as="sourcePoint" />
            <mxPoint x="490" y="1480" as="targetPoint" />
          </mxGeometry>
        </mxCell>
        <mxCell id="_QdN2ZTpumICd109jLUp-312" value="" style="shape=message;html=1;outlineConnect=0;" vertex="1" parent="_QdN2ZTpumICd109jLUp-311">
          <mxGeometry width="20" height="14" relative="1" as="geometry">
            <mxPoint x="-10" y="-7" as="offset" />
          </mxGeometry>
        </mxCell>
        <mxCell id="_QdN2ZTpumICd109jLUp-313" value="" style="shape=actor;whiteSpace=wrap;html=1;" vertex="1" parent="1">
          <mxGeometry x="527" y="1450" width="40" height="60" as="geometry" />
        </mxCell>
        <mxCell id="_QdN2ZTpumICd109jLUp-314" value="" style="endArrow=classic;html=1;rounded=0;exitX=0.455;exitY=1.059;exitDx=0;exitDy=0;exitPerimeter=0;" edge="1" parent="1" source="_QdN2ZTpumICd109jLUp-243" target="_QdN2ZTpumICd109jLUp-282">
          <mxGeometry relative="1" as="geometry">
            <mxPoint x="80" y="1360" as="sourcePoint" />
            <mxPoint x="240" y="1360" as="targetPoint" />
          </mxGeometry>
        </mxCell>
        <mxCell id="_QdN2ZTpumICd109jLUp-315" value="Label" style="edgeLabel;resizable=0;html=1;;align=center;verticalAlign=middle;" connectable="0" vertex="1" parent="_QdN2ZTpumICd109jLUp-314">
          <mxGeometry relative="1" as="geometry" />
        </mxCell>
        <mxCell id="_QdN2ZTpumICd109jLUp-316" value="Source" style="edgeLabel;resizable=0;html=1;;align=left;verticalAlign=bottom;" connectable="0" vertex="1" parent="_QdN2ZTpumICd109jLUp-314">
          <mxGeometry x="-1" relative="1" as="geometry" />
        </mxCell>
        <mxCell id="_QdN2ZTpumICd109jLUp-317" value="Target" style="edgeLabel;resizable=0;html=1;;align=right;verticalAlign=bottom;" connectable="0" vertex="1" parent="_QdN2ZTpumICd109jLUp-314">
          <mxGeometry x="1" relative="1" as="geometry" />
        </mxCell>
        <mxCell id="_QdN2ZTpumICd109jLUp-318" value="transaction_request" style="edgeLabel;html=1;align=center;verticalAlign=middle;resizable=0;points=[];" vertex="1" connectable="0" parent="_QdN2ZTpumICd109jLUp-314">
          <mxGeometry x="0.0616" y="-1" relative="1" as="geometry">
            <mxPoint y="-5" as="offset" />
          </mxGeometry>
        </mxCell>
        <mxCell id="_QdN2ZTpumICd109jLUp-319" value="Successful // Failed&lt;br&gt;Mail send to customer" style="text;html=1;align=center;verticalAlign=middle;resizable=0;points=[];autosize=1;strokeColor=none;fillColor=none;" vertex="1" parent="1">
          <mxGeometry x="370" y="1483" width="140" height="40" as="geometry" />
        </mxCell>
        <mxCell id="_QdN2ZTpumICd109jLUp-320" value="" style="endArrow=classic;html=1;rounded=0;exitX=0.447;exitY=0.965;exitDx=0;exitDy=0;exitPerimeter=0;entryX=0.473;entryY=0.013;entryDx=0;entryDy=0;entryPerimeter=0;" edge="1" parent="1" source="_QdN2ZTpumICd109jLUp-192" target="_QdN2ZTpumICd109jLUp-247">
          <mxGeometry width="50" height="50" relative="1" as="geometry">
            <mxPoint x="380" y="1080" as="sourcePoint" />
            <mxPoint x="430" y="1030" as="targetPoint" />
          </mxGeometry>
        </mxCell>
        <mxCell id="_QdN2ZTpumICd109jLUp-321" value="Snapshots all items in cart" style="text;html=1;align=center;verticalAlign=middle;resizable=0;points=[];autosize=1;strokeColor=none;fillColor=none;" vertex="1" parent="1">
          <mxGeometry x="440" y="980" width="160" height="30" as="geometry" />
        </mxCell>
        <mxCell id="_QdN2ZTpumICd109jLUp-322" value="From Cart we can initiate the order" style="text;html=1;align=center;verticalAlign=middle;resizable=0;points=[];autosize=1;strokeColor=none;fillColor=none;" vertex="1" parent="1">
          <mxGeometry x="109" y="990" width="210" height="30" as="geometry" />
        </mxCell>
      </root>
    </mxGraphModel>
  </diagram>
</mxfile>
